<svg xmlns="http://www.w3.org/2000/svg" viewBox="0 0 50 40.75"><defs><style>.cls-1{fill:#fff;}</style></defs><title>资源 1</title><g id="图层_2" data-name="图层 2"><g id="模版"><path id="_复合路径_" data-name="&lt;复合路径&gt;" class="cls-1" d="M24.1,12.48a2.16,2.16,0,1,1,2.13-2.16,2.15,2.15,0,0,1-2.13,2.16m-12,0a2.16,2.16,0,1,1,2.13-2.16,2.15,2.15,0,0,1-2.13,2.16M18.07,0C8.09,0,0,6.8,0,15.18A14.31,14.31,0,0,0,6.24,26.65a1.21,1.21,0,0,1,.51,1,1.67,1.67,0,0,1-.06.39c-.31,1.14-.79,3-.82,3.06a1.63,1.63,0,0,0-.09.45.6.6,0,0,0,.6.6A.72.72,0,0,0,6.73,32l3.95-2.3a1.82,1.82,0,0,1,1-.28,1.55,1.55,0,0,1,.53.08,21.45,21.45,0,0,0,5.9.83l1,0a11.93,11.93,0,0,1-.6-3.72c0-7.65,7.38-13.85,16.48-13.85.33,0,.41,0,.74,0C34.32,5.55,27.09,0,18.07,0"/><path id="_复合路径_2" data-name="&lt;复合路径&gt;" class="cls-1" d="M40,24.46a1.9,1.9,0,1,1,1.88-1.89A1.89,1.89,0,0,1,40,24.46m-10,0a1.9,1.9,0,1,1,1.88-1.89,1.89,1.89,0,0,1-1.88,1.89M44.8,36.18A12,12,0,0,0,50,26.61C50,19.63,43.26,14,34.94,14S19.88,19.63,19.88,26.61s6.74,12.65,15.06,12.65a17.56,17.56,0,0,0,4.92-.69,1.56,1.56,0,0,1,.44-.07,1.53,1.53,0,0,1,.8.24l3.29,1.92a.65.65,0,0,0,.3.09.51.51,0,0,0,.5-.51,1.63,1.63,0,0,0-.08-.37c0-.07-.43-1.59-.68-2.55a1.13,1.13,0,0,1-.06-.32,1,1,0,0,1,.43-.82"/></g></g></svg>