<?xml version="1.0" encoding="utf-8"?>
<!-- Generator: Adobe Illustrator 22.0.1, SVG Export Plug-In . SVG Version: 6.00 Build 0)  -->
<svg version="1.1"
	 id="svg2" xmlns:cc="http://creativecommons.org/ns#" xmlns:dc="http://purl.org/dc/elements/1.1/" xmlns:rdf="http://www.w3.org/1999/02/22-rdf-syntax-ns#" xmlns:svg="http://www.w3.org/2000/svg"
	 xmlns="http://www.w3.org/2000/svg" xmlns:xlink="http://www.w3.org/1999/xlink" x="0px" y="0px" viewBox="0 0 140 50"
	 style="enable-background:new 0 0 140 50;" xml:space="preserve">
<style type="text/css">
	.st0{fill:#0071C5;}
</style>
<g id="g10" transform="matrix(1.3333333,0,0,-1.3333333,0,65.333333)">
	<g id="g12" transform="scale(0.1)">
		<path id="path14" class="st0" d="M510.8,155.7c-112.4-10.4-229.5,6-245.9,93.8c-8,43.3,11.7,89.2,37.9,117.7v15.2
			c-47.1-41.3-72.7-93.6-57.9-155.4c18.8-79.2,119.3-124.1,272.7-109.2c60.7,5.9,140.2,25.4,195.4,55.8v43.1
			C662.8,186.8,579.9,162.1,510.8,155.7z M806.8,383.5c-26.6,130.1-279.3,138.4-442.2,39.2v-10.9C527.3,495.4,758,494.9,779.1,375
			c7.1-39.6-15.3-80.9-55.2-104.7v-31.1C771.9,256.8,821.1,313.7,806.8,383.5"/>
		<path id="path16" class="st0" d="M703.9,402.4h-29.5V271.2c0-15.4,7.4-28.8,29.5-30.9V402.4"/>
		<path id="path18" class="st0" d="M353.1,354.5h-29.5l0-85.7c0-15.5,7.5-28.8,29.5-30.9L353.1,354.5"/>
		<path id="path20" class="st0" d="M323.6,370.5H353v27.9h-29.4V370.5z"/>
		<path id="path22" class="st0" d="M529.5,239.2c-23.8,0-33.9,16.6-33.9,32.9V386h29.2v-31.5h22v-23.6h-22v-57
			c0-6.6,3.1-10.4,10.1-10.4h11.9v-24.3H529.5"/>
		<path id="path24" class="st0" d="M583.2,287.7c0-14.9,9.4-25.9,25.9-25.9c13,0,19.4,3.6,26.8,11l18-17.2
			c-11.6-11.4-23.7-18.4-45.1-18.4c-28,0-54.7,15.2-54.7,59.7c0,38,23.4,59.5,54.1,59.5c31.2,0,49.1-25.2,49.1-58.2v-10.5
			L583.2,287.7 M607,332.3c-10,0-17.7-5.2-21-12.1c-1.9-4.2-2.6-7.5-2.8-12.6h45C627.7,320.2,622,332.3,607,332.3"/>
		<path id="path26" class="st0" d="M432.4,330.9c8.6,0,12.1-4.2,12.1-11.1v-80.7h29.2V320c0,16.4-8.7,34.5-34.4,34.5l-60.3,0V239.1
			h29.2v91.8H432.4"/>
		<path id="path28" class="st0" d="M735.6,379c-6.5,0-11.7,5.3-11.7,11.7s5.2,11.7,11.7,11.7c6.4,0,11.8-5.2,11.8-11.7
			C747.3,384.2,742,379,735.6,379z M735.6,400.5c-5.4,0-9.7-4.4-9.7-9.8c0-5.4,4.3-9.7,9.7-9.7c5.3,0,9.8,4.3,9.8,9.7
			C745.4,396.1,740.9,400.5,735.6,400.5z M740.8,383.7h-2.2c-0.2,0-0.4,0.1-0.4,0.3l-3,5c-0.1,0.1-0.4,0.3-0.4,0.3c0,0-0.5,0-0.9,0
			c-0.2,0-0.4,0-0.5,0v-5c0-0.3-0.2-0.5-0.5-0.5h-2c-0.3,0-0.5,0.3-0.5,0.5v12.7c0,0.7,0.3,1.1,0.9,1.1c0.7,0.1,2.6,0.2,3.6,0.2
			c3.6,0,5.8-1.1,5.8-4.5v-0.3c0-2.1-1-3.2-2.7-3.7l3.1-5.3c0.1-0.1,0.1-0.3,0.1-0.4C741.2,383.9,741.1,383.7,740.8,383.7z
			 M737.9,393.7c0,1.4-0.9,1.9-2.8,1.9c-0.3,0-0.9,0-1.4,0c-0.2,0-0.4,0-0.5,0v-4c0.3,0,1.6-0.1,1.9-0.1c1.9,0,2.8,0.7,2.8,2
			L737.9,393.7"/>
	</g>
</g>
</svg>
