<?xml version="1.0" encoding="utf-8"?>
<!-- Generator: Adobe Illustrator 22.0.1, SVG Export Plug-In . SVG Version: 6.00 Build 0)  -->
<svg version="1.1" id="图层_1" xmlns="http://www.w3.org/2000/svg" xmlns:xlink="http://www.w3.org/1999/xlink" x="0px" y="0px"
	 viewBox="0 0 140 50" style="enable-background:new 0 0 140 50;" xml:space="preserve">
<style type="text/css">
	.st0{fill:#EE2D1C;}
</style>
<title>logo-DFM</title>
<g id="图层_2_1_">
	<g id="图层_1-2">
		<path class="st0" d="M70,0C56.2,0,45,11.2,45,25s11.2,25,25,25s25-11.2,25-25S83.8,0,70,0z M66.4,4.2C72,3.3,77.2,4.3,81.9,7.5
			c2.7,1.8,4.9,4.2,6.5,7.1c0.2,0.3,0.2,0.7,0.1,1C88,18,86.7,20.1,85,21.8c-0.4,0.4-0.8,0.9-1.3,1.3c-0.6-5.3-2.4-9.8-6.6-13.2
			c-4.1-3.3-8.7-5-14-4.7l0-0.3C64.2,4.7,65.3,4.3,66.4,4.2z M72,36.2c-0.4,0.6-0.9,1.1-1.4,1.7c-0.2,0.2-0.3,0.3-0.5,0.5
			c-2.1-2.1-3.6-4.5-4.5-7.3c-1.8-5.8-1.1-11.3,2-16.5c0.5-0.9,1.3-1.6,1.9-2.4c0.4-0.5,0.6-0.4,1,0c2.7,3,4.4,6.4,4.8,10.5
			C75.9,27.6,74.8,32.1,72,36.2L72,36.2z M49.6,31.2c-0.2-0.8-0.4-1.5-0.6-2.3c-1.2-7.4,0.8-13.9,6.3-19.1c1.4-1.3,3.1-2.3,4.6-3.4
			c0.2-0.1,0.5-0.2,0.8-0.1c2.9,0.7,5.3,2.3,7.6,4.1c0,0,0,0.1,0.1,0.2c-5.4,0.3-10,2.4-13.6,6.4s-5,8.8-5.1,14.1L49.6,31.2z
			 M76,45.4c-8.7,2.6-18-0.7-23.3-8c-0.2-0.3-0.4-0.6-0.6-0.9c-0.8-0.9-0.7-1.8-0.3-2.9c0.8-2.1,2-4,3.6-5.5c0.3-0.3,0.6-0.7,0.9-1
			l0.2,0.1c0.4,5.2,2.3,9.7,6.4,13.1c4,3.3,8.5,5.1,13.8,4.8l0,0.2C76.4,45.2,76.2,45.3,76,45.4z M80.2,43.6c-0.5,0.3-1,0.4-1.6,0.2
			c-2.6-0.8-4.8-2.2-6.9-3.9c-0.1,0-0.1-0.1-0.1-0.1c0,0,0-0.1,0-0.1C83.5,38,89.5,31,90.3,19c0.1,0.3,0.2,0.6,0.3,0.8
			c1.4,6,0.5,11.7-2.9,16.9C85.8,39.6,83.3,41.9,80.2,43.6z"/>
	</g>
</g>
</svg>
