<?xml version="1.0" encoding="utf-8"?>
<!-- Generator: Adobe Illustrator 22.0.1, SVG Export Plug-In . SVG Version: 6.00 Build 0)  -->
<svg version="1.1" id="Layer_1" xmlns="http://www.w3.org/2000/svg" xmlns:xlink="http://www.w3.org/1999/xlink" x="0px" y="0px"
	 viewBox="0 0 140 50" style="enable-background:new 0 0 140 50;" xml:space="preserve">
<style type="text/css">
	.st0{fill:#014DA2;}
	.st1{fill:none;stroke:#2E499A;stroke-width:8.100000e-02;}
	.st2{fill:#009FDB;}
	.st3{fill:none;stroke:#0D99D6;stroke-width:8.100000e-02;}
	.st4{fill:#00AD7E;}
	.st5{fill:none;stroke:#00A886;stroke-width:8.100000e-02;}
	.st6{fill:#FFFFFF;}
</style>
<g>
	<rect x="21.3" y="4.7" transform="matrix(0.3088 -0.9511 0.9511 0.3088 5.6155 52.729)" class="st0" width="35.6" height="35.6"/>
	<rect x="21.3" y="4.7" transform="matrix(0.3088 -0.9511 0.9511 0.3088 5.6155 52.729)" class="st1" width="35.6" height="35.6"/>
	
		<rect x="51.6" y="13.1" transform="matrix(0.9974 -7.240024e-02 7.240024e-02 0.9974 -2.0545 5.1107)" class="st2" width="35.6" height="35.6"/>
	
		<rect x="51.6" y="13.1" transform="matrix(0.9974 -7.240024e-02 7.240024e-02 0.9974 -2.0545 5.1107)" class="st3" width="35.6" height="35.6"/>
	<polygon class="st4" points="84,43.5 88,8.1 123.4,12 119.5,47.4 	"/>
	<polygon class="st5" points="84,43.5 88,8.1 123.4,12 119.5,47.4 	"/>
	<path class="st6" d="M25.6,19.5h8c6.4,0,5.6,3,4.5,6.4c-1.2,3.3-2.6,6.4-9,6.4h-8L25.6,19.5z M27.5,29.8h1.1c2.1,0,2.6-0.5,3.8-4
		c1.2-3.4,1.1-4-1-4h-1.1L27.5,29.8z"/>
	<path class="st6" d="M48.8,19.3c5.6,0,6.9,1.9,5.2,6.6c-1.7,4.8-4.3,6.6-9.9,6.6c-5.6,0-6.9-1.9-5.2-6.6
		C40.6,21.1,43.1,19.3,48.8,19.3 M44.9,30.2c1.7,0,2.2-0.9,3.4-4.4c1.2-3.4,1.4-4.4-0.3-4.4s-2.2,0.9-3.4,4.4
		C43.4,29.3,43.2,30.2,44.9,30.2"/>
	<path class="st6" d="M64.8,19.3c5.6,0,6.9,1.9,5.2,6.6c-1.7,4.8-4.3,6.6-9.9,6.6c-5.6,0-6.9-1.9-5.2-6.6
		C56.5,21.1,59.1,19.3,64.8,19.3 M60.9,30.2c1.7,0,2.2-0.9,3.4-4.4c1.2-3.4,1.4-4.4-0.3-4.4c-1.7,0-2.2,0.9-3.4,4.4
		C59.3,29.3,59.2,30.2,60.9,30.2"/>
	<path class="st6" d="M80.3,23.2l0.1-0.3c0.3-0.7,0-1.4-1.1-1.4c-1.2,0-1.9,0.6-2.1,1.1c-0.9,2.5,8.6,1.3,6.9,5.9
		c-1,2.7-4,3.9-8.9,3.9c-4.6,0-6.8-0.9-5.9-3.6l0.2-0.4h5.3l-0.1,0.3c-0.4,1.1,0.2,1.5,1.3,1.5c1.1,0,2-0.5,2.2-1.2
		c0.9-2.5-8.2-1.3-6.6-5.8c0.9-2.6,3.7-4,8.4-4c4.8,0,6.4,1.2,5.5,3.9L80.3,23.2L80.3,23.2z"/>
	<path class="st6" d="M92.1,19.5h6.9l0.7,12.7h-5.9l0.2-2.2h-4.4l-1.4,2.2h-5.9L92.1,19.5z M94.7,22.1L94.7,22.1l-3.5,5.4h3.1
		L94.7,22.1z"/>
	<polygon class="st6" points="104.9,19.5 111.1,19.5 111.9,27.3 111.9,27.3 114.7,19.5 119.9,19.5 115.4,32.2 109.3,32.2 
		108.4,24.4 108.3,24.4 105.6,32.2 100.4,32.2 	"/>
</g>
</svg>
