<?xml version="1.0" encoding="utf-8"?>
<!-- Generator: Adobe Illustrator 22.0.1, SVG Export Plug-In . SVG Version: 6.00 Build 0)  -->
<svg version="1.1"
	 id="logo_1_" xmlns:cc="http://creativecommons.org/ns#" xmlns:dc="http://purl.org/dc/elements/1.1/" xmlns:rdf="http://www.w3.org/1999/02/22-rdf-syntax-ns#" xmlns:svg="http://www.w3.org/2000/svg"
	 xmlns="http://www.w3.org/2000/svg" xmlns:xlink="http://www.w3.org/1999/xlink" x="0px" y="0px" viewBox="0 0 140 50"
	 style="enable-background:new 0 0 140 50;" xml:space="preserve">
<style type="text/css">
	.st0{fill:#049FD9;}
</style>
<path id="logo" class="st0" d="M117.4,15.5c0-1.1-0.9-2-2-2c-1.1,0-2.1,0.9-2.1,2v4.3c0,1.1,0.9,2.1,2.1,2.1c1.1,0,2-0.9,2-2.1V15.5
	z M106.1,9.8c0-1.1-0.9-2-2.1-2c-1.1,0-2,0.9-2,2v10c0,1.1,0.9,2.1,2,2.1c1.2,0,2.1-0.9,2.1-2.1C106.1,19.8,106.1,9.8,106.1,9.8z
	 M94.7,2c0-1.1-0.9-2-2-2c-1.1,0-2,0.9-2,2v21.9c0,1.1,0.9,2.1,2,2.1c1.1,0,2-0.9,2-2.1V2z M83.4,9.8c0-1.1-0.9-2-2-2
	c-1.1,0-2,0.9-2,2v10c0,1.1,0.9,2.1,2,2.1c1.1,0,2-0.9,2-2.1C83.4,19.8,83.4,9.8,83.4,9.8z M72.1,15.5c0-1.1-0.9-2-2-2
	c-1.1,0-2.1,0.9-2.1,2v4.3c0,1.1,0.9,2.1,2.1,2.1c1.1,0,2-0.9,2-2.1C72.1,19.8,72.1,15.5,72.1,15.5z M60.7,9.8c0-1.1-0.9-2-2.1-2
	s-2.1,0.9-2.1,2v10c0,1.1,0.9,2.1,2.1,2.1s2.1-0.9,2.1-2.1C60.7,19.8,60.7,9.8,60.7,9.8z M49.4,2c0-1.1-0.9-2-2.1-2s-2.1,0.9-2.1,2
	v21.9c0,1.1,0.9,2.1,2.1,2.1s2.1-0.9,2.1-2.1V2z M38,9.8c0-1.1-0.9-2-2.1-2s-2.1,0.9-2.1,2v10c0,1.1,0.9,2.1,2.1,2.1S38,21,38,19.8
	V9.8z M26.7,15.5c0-1.1-0.9-2-2.1-2c-1.1,0-2.1,0.9-2.1,2v4.3c0,1.1,0.9,2.1,2.1,2.1c1.1,0,2.1-0.9,2.1-2.1V15.5L26.7,15.5z
	 M69.3,33.4c-0.1,0-2-0.5-4-0.5c-3.8,0-6.1,2.1-6.1,5.1c0,2.7,1.9,4.1,4.2,4.8c0.3,0.1,0.6,0.2,0.9,0.3c1,0.3,1.9,0.8,1.9,1.6
	c0,0.9-0.9,1.5-3,1.5c-1.8,0-3.6-0.5-3.9-0.6v3.8c0.2,0,2.3,0.5,4.5,0.5c3.2,0,6.8-1.4,6.8-5.6c0-2-1.2-3.9-3.9-4.7l-1.1-0.4
	c-0.7-0.2-1.9-0.6-1.9-1.6c0-0.8,0.9-1.4,2.6-1.4c1.4,0,3.2,0.5,3.2,0.5L69.3,33.4L69.3,33.4L69.3,33.4z M104.5,41.4
	c0,2.4-1.9,4.3-4.3,4.3c-2.5,0-4.3-1.9-4.3-4.3c0-2.4,1.8-4.3,4.3-4.3C102.6,37.1,104.5,39.1,104.5,41.4 M100.2,32.9
	c-5.1,0-8.7,3.8-8.7,8.5s3.7,8.5,8.7,8.5c5.1,0,8.7-3.8,8.7-8.5S105.2,32.9,100.2,32.9 M43.7,33.5c-0.4-0.1-1.9-0.6-3.8-0.6
	c-5.1,0-8.8,3.6-8.8,8.5c0,5.3,4.1,8.5,8.8,8.5c1.9,0,3.3-0.5,3.8-0.6V45c-0.2,0.1-1.5,0.9-3.5,0.9c-2.8,0-4.6-1.9-4.6-4.4
	c0-2.5,1.9-4.4,4.6-4.4c2,0,3.3,0.8,3.5,0.9V33.5z M87.1,33.5c-0.4-0.1-1.9-0.6-3.8-0.6c-5.1,0-8.8,3.6-8.8,8.5
	c0,5.3,4.1,8.5,8.8,8.5c1.9,0,3.3-0.5,3.8-0.6V45c-0.2,0.1-1.5,0.9-3.5,0.9c-2.8,0-4.6-1.9-4.6-4.4c0-2.5,1.9-4.4,4.6-4.4
	c2,0,3.3,0.8,3.5,0.9V33.5z M53.6,49.7h-4.2V33.2h4.2V49.7z"/>
</svg>
