<?xml version="1.0" encoding="utf-8"?>
<!-- Generator: Adobe Illustrator 22.0.1, SVG Export Plug-In . SVG Version: 6.00 Build 0)  -->
<svg version="1.1" id="IBM" xmlns="http://www.w3.org/2000/svg" xmlns:xlink="http://www.w3.org/1999/xlink" x="0px" y="0px"
	 viewBox="0 0 140 50" style="enable-background:new 0 0 140 50;" xml:space="preserve">
<style type="text/css">
	.st0{fill:#1F70C1;}
</style>
<path id="IBM_1_" class="st0" d="M7.5,0v3.4h24.4V0H7.5z M35.3,0v3.4H70c0,0-3.5-3.4-8.2-3.4C61.7,0,35.3,0,35.3,0z M76.8,0v3.4h21
	L96.5,0C96.5,0,76.8,0,76.8,0z M112.8,0l-1.3,3.4h20.8V0H112.8z M7.5,6.7v3.4h24.4V6.7H7.5z M35.3,6.7v3.4H74c0,0-0.4-2.6-1.3-3.4
	H35.3z M76.8,6.7v3.4h23.3l-1.2-3.4H76.8z M110.3,6.7l-1.2,3.4h23.2V6.7H110.3z M14.5,13.3v3.4H25v-3.4H14.5z M42.3,13.3v3.4h10.5
	v-3.4H42.3z M63.1,13.3v3.4h10.5c0,0,0.7-1.8,0.7-3.4H63.1z M83.8,13.3v3.4h18.7l-1.3-3.4H83.8z M108,13.3l-1.3,3.4h18.8v-3.4H108z
	 M14.5,20v3.4H25V20H14.5L14.5,20z M42.3,20v3.4h26.9c0,0,2.3-1.8,3-3.4H42.3L42.3,20z M83.8,20v3.4h10.5v-1.9l0.7,1.9h19.3l0.7-1.9
	v1.9h10.5V20h-19.8l-1.1,2.9l-1.1-2.9H83.8L83.8,20z M14.5,26.6v3.4H25v-3.4H14.5z M42.3,26.6v3.4h29.9c-0.7-1.7-3-3.4-3-3.4H42.3z
	 M83.8,26.6v3.4h10.5v-3.4H83.8z M96.2,26.6l1.3,3.4H112l1.2-3.4H96.2z M115,26.6v3.4h10.5v-3.4H115z M14.5,33.3v3.4H25v-3.4H14.5z
	 M42.3,33.3v3.4h10.5v-3.4H42.3z M63.1,33.3v3.4h11.2c0-1.6-0.7-3.4-0.7-3.4H63.1z M83.8,33.3v3.4h10.5v-3.4H83.8z M98.6,33.3
	l1.3,3.4h9.7l1.3-3.4H98.6z M115,33.3v3.4h10.5v-3.4H115z M7.6,39.9v3.4H32v-3.4C32,39.9,7.6,39.9,7.6,39.9z M35.3,39.9v3.4h37.5
	c0.8-0.8,1.3-3.4,1.3-3.4S35.3,39.9,35.3,39.9z M76.9,39.9v3.4h17.4v-3.4C94.3,39.9,76.9,39.9,76.9,39.9z M101,39.9l1.3,3.4h4.9
	l1.2-3.4C108.4,39.9,101,39.9,101,39.9z M115,39.9v3.4h17.5v-3.4C132.5,39.9,115,39.9,115,39.9z M7.6,46.6V50H32v-3.4H7.6z
	 M35.3,46.6V50h26.5c4.7,0,8.2-3.4,8.2-3.4H35.3z M76.9,46.6V50h17.4v-3.4H76.9z M103.4,46.6l1.2,3.4h0.2l1.3-3.4H103.4z M115,46.6
	V50h17.5v-3.4H115z"/>
</svg>
