<?xml version="1.0" encoding="utf-8"?>
<!-- Generator: Adobe Illustrator 22.0.1, SVG Export Plug-In . SVG Version: 6.00 Build 0)  -->
<svg version="1.1" id="图层_1" xmlns="http://www.w3.org/2000/svg" xmlns:xlink="http://www.w3.org/1999/xlink" x="0px" y="0px"
	 viewBox="0 0 140 50" style="enable-background:new 0 0 140 50;" xml:space="preserve">
<style type="text/css">
	.st0{fill:#0086D1;}
</style>
<title>logo-ZTE</title>
<g id="图层_2_1_">
	<g id="图层_1-2">
		<path class="st0" d="M120.7,20.2c-1.7-3.6-4.7-7.9-5.6-9.3c-0.1-0.3-0.5-0.4-0.7-0.2c0,0-0.1,0-0.1,0.1l-2.4,2
			c0,0.1,3.8,5.3,5.7,9.2L120.7,20.2z"/>
		<path class="st0" d="M122.5,30.3c-0.4-0.2-2.9-1.4-2.9-1.4c0,0.1-3,7.2-7.9,11.6l2.7,2.4c4.7-4.2,7.5-10,8.3-11.8
			C122.9,30.7,122.8,30.4,122.5,30.3C122.6,30.3,122.5,30.3,122.5,30.3z"/>
		<path class="st0" d="M130.6,28.7l-2.4,2.9c0.1,0.1,5.9,5.6,9,11l2.6-2.3c0.2-0.2,0.2-0.4,0.1-0.6
			C136.4,34.1,130.8,28.9,130.6,28.7z"/>
		<path class="st0" d="M133.9,23.4L133.9,23.4c-0.3,0-0.5-0.2-0.5-0.5c0,0,0,0,0,0c0-0.1,0-0.1,0-0.2l5.2-12.2
			c0.1-0.2,0-0.5-0.3-0.6l-2.9-1.2c-4.3,10.7-5.5,13-5.5,13c-0.4,1-1.5,1.7-2.6,1.7h-15.4v3.7h27.3c0.5,0,0.8-0.4,0.8-0.9v-2.8
			H133.9z"/>
		<path class="st0" d="M127.9,19.5c-0.5-3.3-1.8-9.7-2.2-11.6c-0.1-0.3-0.3-0.4-0.6-0.4l-3.1,0.7c0,0.1,1.7,8.2,2.3,11.9L127.9,19.5
			z"/>
		<path class="st0" d="M105,14.4h-8.5c-0.5,0-0.9-0.4-0.9-0.9V7.2h-3.7v6.3c0,0.5-0.4,0.9-0.9,0.9h-8.5c-1.4,0-2.4,1.1-2.4,2.4v12.7
			c0,1.4,1.1,2.4,2.4,2.4c0,0,0,0,0,0h8.5c0.5,0,0.9,0.4,0.9,0.9c0,0,0,0,0,0v9.9h3.7v-9.9c0-0.5,0.4-0.8,0.9-0.8h8.5
			c1.3,0,2.4-1.1,2.4-2.4V16.8C107.4,15.5,106.3,14.4,105,14.4z M91.9,18.9v8.5c0,0.5-0.4,0.9-0.8,0.9c0,0,0,0,0,0h-6.5
			c-0.5,0-0.9-0.4-0.9-0.9c0,0,0,0,0,0v-8.6c0-0.5,0.4-0.9,0.9-0.9c0,0,0,0,0,0h6.5C91.6,18.1,91.9,18.4,91.9,18.9L91.9,18.9z
			 M102.9,28.3h-6.5c-0.5,0-0.9-0.4-0.9-0.8c0,0,0,0,0,0v-8.6c0-0.5,0.4-0.9,0.9-0.9h6.5c0.5,0,0.9,0.4,0.9,0.9c0,0,0,8.5,0,8.5
			C103.8,27.9,103.4,28.3,102.9,28.3C102.9,28.3,102.9,28.3,102.9,28.3z"/>
		<path class="st0" d="M22.6,7.2h-19c-1.4,0-2.4,1.1-2.4,2.4s1.1,2.4,2.4,2.4h10.8c0.9,0,1.7,0.8,1.7,1.7c0,0.3-0.1,0.7-0.3,0.9
			l-15.3,24c-0.1,0.1-0.2,0.2-0.2,0.2C0.1,39.4,0,39.8,0,40.3c0,1.3,1.1,2.4,2.4,2.4h20.2c1.4,0,2.4-1.1,2.4-2.4
			c0-1.4-1.1-2.4-2.4-2.4H10.7c-0.9,0-1.7-0.8-1.7-1.7c0-0.3,0.1-0.5,0.2-0.8L24.7,11l0,0c0.2-0.4,0.4-0.8,0.4-1.3
			C25.1,8.3,24,7.2,22.6,7.2C22.6,7.2,22.6,7.2,22.6,7.2z"/>
		<path class="st0" d="M48.3,7.2H29.3c-1.4,0-2.4,1.1-2.4,2.4s1.1,2.4,2.4,2.4h4.3c1.3,0,2.4,1.1,2.4,2.4l0,0V40
			c0.1,1.5,1.3,2.7,2.8,2.7c1.4-0.1,2.6-1.2,2.7-2.7V14.6c0-1.3,1.1-2.4,2.4-2.4c0,0,0,0,0,0h4.3c1.4,0,2.4-1.1,2.4-2.4
			S49.6,7.2,48.3,7.2L48.3,7.2z"/>
		<path class="st0" d="M60.5,12.1H71c1.4,0,2.4-1.1,2.4-2.4S72.3,7.2,71,7.2l0,0H55c-1.3,0-2.4,1.1-2.4,2.4c0,0,0,0,0,0v0.1
			c0,0,0,30.4,0,30.5c0,1.3,1.1,2.4,2.4,2.4h16c1.4-0.1,2.4-1.2,2.3-2.6c-0.1-1.3-1.1-2.2-2.3-2.3H60.5c-1.3,0-2.4-1.1-2.4-2.4v-5.5
			c0-1.4,1.1-2.4,2.4-2.4c0,0,0,0,0,0h8.6c1.4,0,2.4-1.1,2.4-2.4c0-1.4-1.1-2.4-2.4-2.4h-8.6c-1.3,0-2.4-1.1-2.4-2.4v-5.5
			C58.1,13.2,59.2,12.2,60.5,12.1z"/>
	</g>
</g>
</svg>
