<?xml version="1.0" encoding="utf-8"?>
<!-- Generator: Adobe Illustrator 22.0.1, SVG Export Plug-In . SVG Version: 6.00 Build 0)  -->
<svg version="1.1" id="oracle" xmlns:svg="http://www.w3.org/2000/svg"
	 xmlns="http://www.w3.org/2000/svg" xmlns:xlink="http://www.w3.org/1999/xlink" x="0px" y="0px" viewBox="0 0 140 50"
	 style="enable-background:new 0 0 140 50;" xml:space="preserve">
<style type="text/css">
	.st0{fill:#EA1B22;}
</style>
<g>
	<path id="oracle_1_" class="st0" d="M58.3,27.6h8.9L62.5,20l-8.6,13.7h-4l10.5-16.5c0.5-0.7,1.2-1.1,2.1-1.1c0.8,0,1.6,0.4,2,1
		l10.6,16.5h-4l-1.9-3.1h-9L58.3,27.6z M99.2,30.7V16.4h-3.4v15.7c0,0.4,0.2,0.8,0.5,1.2c0.3,0.3,0.7,0.5,1.2,0.5h15.3l2-3.1
		L99.2,30.7L99.2,30.7z M43.9,28.1c3.3,0,5.9-2.6,5.9-5.9s-2.6-5.9-5.9-5.9H29.3v17.4h3.3V19.5h11.1c1.5,0,2.8,1.3,2.8,2.8
		c0,1.5-1.3,2.8-2.8,2.8h-9.4l10,8.7h4.9l-6.7-5.6H43.9L43.9,28.1z M8.7,33.8c-4.8,0-8.7-3.9-8.7-8.7s3.9-8.7,8.7-8.7h10.1
		c4.8,0,8.7,3.9,8.7,8.7s-3.9,8.6-8.7,8.6H8.7z M18.6,30.7c3.1,0,5.6-2.5,5.6-5.6c0-3.1-2.5-5.6-5.6-5.6H8.9c-3.1,0-5.6,2.5-5.6,5.6
		s2.5,5.6,5.6,5.6H18.6z M82,33.8c-4.8,0-8.7-3.9-8.7-8.7s3.9-8.7,8.7-8.7h12l-2,3.1h-9.8c-3.1,0-5.6,2.5-5.6,5.6s2.5,5.6,5.6,5.6
		h12l-2,3.1L82,33.8L82,33.8z M122.9,30.7c-2.6,0-4.8-1.7-5.4-4.1h14.3l2-3.1h-16.3c0.7-2.3,2.8-4.1,5.4-4.1h9.8l2-3.1h-12
		c-4.8,0-8.7,3.9-8.7,8.7s3.9,8.7,8.7,8.7H133l2-3.1L122.9,30.7"/>
	<path id="r" class="st0" d="M136.5,18.2c0-0.8,0.7-1.5,1.5-1.5s1.5,0.7,1.5,1.5s-0.7,1.5-1.5,1.5C137.2,19.8,136.5,19.1,136.5,18.2
		z M138,20.2c1.1,0,2-0.9,2-2c0-1.1-0.9-2-2-2c-1.1,0-1.9,0.9-1.9,2C136.1,19.3,137,20.2,138,20.2z M137.9,17.1c0.3,0,0.4,0,0.6,0.1
		c0.4,0.1,0.4,0.5,0.4,0.6c0,0,0,0.1,0,0.2c0,0.1-0.1,0.2-0.3,0.4c0,0,0,0-0.1,0.1l0.5,0.9h-0.5l-0.5-0.8h-0.3v0.8h-0.4v-2.2H137.9
		L137.9,17.1z M138,18.1c0.1,0,0.3,0,0.4-0.1c0-0.1,0.1-0.1,0.1-0.2c0-0.1-0.1-0.2-0.2-0.3c-0.1,0-0.2,0-0.4,0h-0.1v0.6L138,18.1"/>
</g>
</svg>
