<?xml version="1.0" encoding="utf-8"?>
<!-- Generator: Adobe Illustrator 22.0.1, SVG Export Plug-In . SVG Version: 6.00 Build 0)  -->
<svg version="1.1" id="图层_1" xmlns="http://www.w3.org/2000/svg" xmlns:xlink="http://www.w3.org/1999/xlink" x="0px" y="0px"
	 viewBox="0 0 140 50" style="enable-background:new 0 0 140 50;" xml:space="preserve">
<style type="text/css">
	.st0{fill:#231815;}
	.st1{clip-path:url(#SVGID_2_);}
	.st2{fill:url(#SVGID_3_);}
	.st3{clip-path:url(#SVGID_5_);}
	.st4{fill:url(#SVGID_6_);}
	.st5{clip-path:url(#SVGID_8_);}
	.st6{fill:url(#SVGID_9_);}
	.st7{clip-path:url(#SVGID_11_);}
	.st8{fill:url(#SVGID_12_);}
	.st9{clip-path:url(#SVGID_14_);}
	.st10{fill:url(#SVGID_15_);}
	.st11{clip-path:url(#SVGID_17_);}
	.st12{fill:url(#SVGID_18_);}
	.st13{clip-path:url(#SVGID_20_);}
	.st14{fill:url(#SVGID_21_);}
	.st15{clip-path:url(#SVGID_23_);}
	.st16{fill:url(#SVGID_24_);}
</style>
<title>资源 1</title>
<g>
	<polygon class="st0" points="58.5,26 51.4,26 51.4,19.8 48.3,19.8 48.3,35.2 51.4,35.2 51.4,28.9 58.5,28.9 58.5,35.2 61.6,35.2 
		61.6,19.8 58.5,19.8 	"/>
	<path class="st0" d="M76.2,28.6c0,2.5-1.3,3.9-3.5,3.9s-3.5-1.4-3.5-4v-8.8H66v8.8c0,4.3,2.4,6.8,6.6,6.8c4.2,0,6.7-2.5,6.7-7v-8.7
		h-3.1L76.2,28.6L76.2,28.6z"/>
	<polygon class="st0" points="112.3,30.4 108.8,19.8 106.3,19.8 102.8,30.4 99.4,19.8 96,19.8 101.4,35.2 104,35.2 107.5,25.1 
		111,35.2 113.6,35.2 119,19.8 115.7,19.8 	"/>
	<polygon class="st0" points="124.6,28.6 130.3,28.6 130.3,25.8 124.6,25.8 124.6,22.6 132.9,22.6 132.9,19.8 121.5,19.8 
		121.5,35.2 133.2,35.2 133.2,32.4 124.6,32.4 	"/>
	<rect x="136.9" y="19.8" class="st0" width="3.1" height="15.4"/>
	<path class="st0" d="M92.5,32l1.4,3.2h3.3l-6.7-15.3l-0.1-0.1h-2.7l-6.9,15.4H84l1.3-3l0,0l0.1-0.2L92.5,32z M89,23.7l2.2,5.2l0,0
		l0.1,0.4h-4.7l0.1-0.4l0,0L89,23.7z"/>
	<g>
		<g>
			<defs>
				<path id="SVGID_1_" d="M2.9,21.8C3,24.4,5,25.9,5,25.9c3.1,3,10.6,6.8,12.4,7.7c0.1,0,0.1,0,0.2,0c0,0,0.1-0.1,0-0.1l0,0
					C12.7,23,6.2,15.1,6.2,15.1S2.7,18.4,2.9,21.8"/>
			</defs>
			<clipPath id="SVGID_2_">
				<use xlink:href="#SVGID_1_"  style="overflow:visible;"/>
			</clipPath>
			<g class="st1">
				
					<radialGradient id="SVGID_3_" cx="-2064.9082" cy="575.9512" r="9.968343e-02" gradientTransform="matrix(294.05 0 0 -294.05 607212 169372.0781)" gradientUnits="userSpaceOnUse">
					<stop  offset="0" style="stop-color:#F7BFA4"/>
					<stop  offset="5.000000e-02" style="stop-color:#F5A691"/>
					<stop  offset="0.43" style="stop-color:#E60012"/>
					<stop  offset="0.69" style="stop-color:#E40011"/>
					<stop  offset="0.79" style="stop-color:#DD0010"/>
					<stop  offset="0.87" style="stop-color:#D1000D"/>
					<stop  offset="0.93" style="stop-color:#BF0008"/>
					<stop  offset="0.98" style="stop-color:#A90002"/>
					<stop  offset="1" style="stop-color:#A00000"/>
				</radialGradient>
				<rect x="2.7" y="15.1" class="st2" width="14.9" height="18.6"/>
			</g>
		</g>
	</g>
	<g>
		<g>
			<defs>
				<path id="SVGID_4_" d="M3.7,36.5c1.4,2.4,3.6,4.3,6,3.7c1.6-0.4,5.4-3,6.6-3.9l0,0c0.1-0.1,0.1-0.1,0.1-0.1
					c0-0.1-0.1-0.1-0.2-0.1l0,0L3.7,36.5z"/>
			</defs>
			<clipPath id="SVGID_5_">
				<use xlink:href="#SVGID_4_"  style="overflow:visible;"/>
			</clipPath>
			<g class="st3">
				
					<radialGradient id="SVGID_6_" cx="-2064.8953" cy="575.9452" r="9.968343e-02" gradientTransform="matrix(294.1 0 0 -294.1 607311 169398.5938)" gradientUnits="userSpaceOnUse">
					<stop  offset="0" style="stop-color:#F7BFA4"/>
					<stop  offset="5.000000e-02" style="stop-color:#F5A691"/>
					<stop  offset="0.43" style="stop-color:#E60012"/>
					<stop  offset="0.69" style="stop-color:#E40011"/>
					<stop  offset="0.79" style="stop-color:#DD0010"/>
					<stop  offset="0.87" style="stop-color:#D1000D"/>
					<stop  offset="0.93" style="stop-color:#BF0008"/>
					<stop  offset="0.98" style="stop-color:#A90002"/>
					<stop  offset="1" style="stop-color:#A00000"/>
				</radialGradient>
				<rect x="3.7" y="36" class="st4" width="12.7" height="4.7"/>
			</g>
		</g>
	</g>
	<g>
		<g>
			<defs>
				<path id="SVGID_7_" d="M0.7,30.9c1.4,2.9,4,3.7,4,3.7c0.8,0.3,1.6,0.5,2.4,0.5c0.2,0,7.4,0,9.4,0c0.1,0,0.1,0,0.1-0.1
					c0.1-0.1,0-0.2,0-0.2l0,0C11,31.1,0.3,25.5,0.3,25.5C-0.6,28.4,0.7,30.9,0.7,30.9"/>
			</defs>
			<clipPath id="SVGID_8_">
				<use xlink:href="#SVGID_7_"  style="overflow:visible;"/>
			</clipPath>
			<g class="st5">
				
					<radialGradient id="SVGID_9_" cx="-2064.9065" cy="575.952" r="9.968343e-02" gradientTransform="matrix(294.03 0 0 -294.03 607170.125 169360.5156)" gradientUnits="userSpaceOnUse">
					<stop  offset="0" style="stop-color:#F7BFA4"/>
					<stop  offset="5.000000e-02" style="stop-color:#F5A691"/>
					<stop  offset="0.43" style="stop-color:#E60012"/>
					<stop  offset="0.69" style="stop-color:#E40011"/>
					<stop  offset="0.79" style="stop-color:#DD0010"/>
					<stop  offset="0.87" style="stop-color:#D1000D"/>
					<stop  offset="0.93" style="stop-color:#BF0008"/>
					<stop  offset="0.98" style="stop-color:#A90002"/>
					<stop  offset="1" style="stop-color:#A00000"/>
				</radialGradient>
				<rect x="-0.6" y="25.5" class="st6" width="17.2" height="9.7"/>
			</g>
		</g>
	</g>
	<g>
		<g>
			<defs>
				<path id="SVGID_10_" d="M15.3,10.1c-3.3,0.8-4.1,3.9-4.1,3.9c-0.6,1.9,0,4,0,4c1.1,4.9,6.5,13,7.7,14.6c0.1,0.1,0.1,0.1,0.1,0.1
					c0.1,0,0.1-0.1,0.1-0.1l0,0c1.9-18-1.8-22.8-1.8-22.8C16.8,9.7,15.3,10.1,15.3,10.1"/>
			</defs>
			<clipPath id="SVGID_11_">
				<use xlink:href="#SVGID_10_"  style="overflow:visible;"/>
			</clipPath>
			<g class="st7">
				
					<radialGradient id="SVGID_12_" cx="-2064.8921" cy="575.9433" r="9.968343e-02" gradientTransform="matrix(294.04 0 0 -294.04 607186.125 169363.4375)" gradientUnits="userSpaceOnUse">
					<stop  offset="0" style="stop-color:#F7BFA4"/>
					<stop  offset="5.000000e-02" style="stop-color:#F5A691"/>
					<stop  offset="0.43" style="stop-color:#E60012"/>
					<stop  offset="0.69" style="stop-color:#E40011"/>
					<stop  offset="0.79" style="stop-color:#DD0010"/>
					<stop  offset="0.87" style="stop-color:#D1000D"/>
					<stop  offset="0.93" style="stop-color:#BF0008"/>
					<stop  offset="0.98" style="stop-color:#A90002"/>
					<stop  offset="1" style="stop-color:#A00000"/>
				</radialGradient>
				<rect x="10.6" y="9.7" class="st8" width="10.4" height="22.9"/>
			</g>
		</g>
	</g>
	<g>
		<g>
			<defs>
				<path id="SVGID_13_" d="M21.4,32.4L21.4,32.4c0,0.1,0,0.1,0.1,0.1c0.1,0,0.1,0,0.2-0.1l0,0c1.2-1.7,6.6-9.7,7.7-14.6
					c0,0,0.6-2.3,0-4c0,0-0.8-3-4.1-3.9c0,0-0.9-0.2-2-0.4C23.3,9.7,19.6,14.4,21.4,32.4"/>
			</defs>
			<clipPath id="SVGID_14_">
				<use xlink:href="#SVGID_13_"  style="overflow:visible;"/>
			</clipPath>
			<g class="st9">
				
					<radialGradient id="SVGID_15_" cx="-2064.8916" cy="575.9443" r="9.968343e-02" gradientTransform="matrix(294.37 0 0 -294.37 607867.25 169553.7656)" gradientUnits="userSpaceOnUse">
					<stop  offset="0" style="stop-color:#F7BFA4"/>
					<stop  offset="5.000000e-02" style="stop-color:#F5A691"/>
					<stop  offset="0.43" style="stop-color:#E60012"/>
					<stop  offset="0.69" style="stop-color:#E40011"/>
					<stop  offset="0.79" style="stop-color:#DD0010"/>
					<stop  offset="0.87" style="stop-color:#D1000D"/>
					<stop  offset="0.93" style="stop-color:#BF0008"/>
					<stop  offset="0.98" style="stop-color:#A90002"/>
					<stop  offset="1" style="stop-color:#A00000"/>
				</radialGradient>
				<rect x="19.6" y="9.7" class="st10" width="10.4" height="22.9"/>
			</g>
		</g>
	</g>
	<g>
		<g>
			<defs>
				<path id="SVGID_16_" d="M24.4,36c-0.1,0-0.1,0-0.1,0.1c0,0.1,0,0.1,0,0.2l0,0c1.2,0.9,4.8,3.4,6.6,3.9c0,0,3.2,1.1,6-3.7
					L24.4,36L24.4,36z"/>
			</defs>
			<clipPath id="SVGID_17_">
				<use xlink:href="#SVGID_16_"  style="overflow:visible;"/>
			</clipPath>
			<g class="st11">
				
					<radialGradient id="SVGID_18_" cx="-2064.9094" cy="575.9582" r="9.968343e-02" gradientTransform="matrix(294.35 0 0 -294.35 607831.75 169546.7969)" gradientUnits="userSpaceOnUse">
					<stop  offset="0" style="stop-color:#F7BFA4"/>
					<stop  offset="5.000000e-02" style="stop-color:#F5A691"/>
					<stop  offset="0.43" style="stop-color:#E60012"/>
					<stop  offset="0.69" style="stop-color:#E40011"/>
					<stop  offset="0.79" style="stop-color:#DD0010"/>
					<stop  offset="0.87" style="stop-color:#D1000D"/>
					<stop  offset="0.93" style="stop-color:#BF0008"/>
					<stop  offset="0.98" style="stop-color:#A90002"/>
					<stop  offset="1" style="stop-color:#A00000"/>
				</radialGradient>
				<rect x="24.3" y="36" class="st12" width="12.7" height="5.3"/>
			</g>
		</g>
	</g>
	<g>
		<g>
			<defs>
				<path id="SVGID_19_" d="M24.1,34.9L24.1,34.9c-0.1,0-0.1,0.1-0.1,0.2c0,0,0,0.1,0.1,0.1l0,0c2,0,9.4,0,9.6,0
					c0.7-0.1,1.5-0.2,2.1-0.5c0,0,2.7-0.8,4-3.9c0,0,1.2-2.5,0.3-5.3C40.2,25.4,29.6,31.1,24.1,34.9"/>
			</defs>
			<clipPath id="SVGID_20_">
				<use xlink:href="#SVGID_19_"  style="overflow:visible;"/>
			</clipPath>
			<g class="st13">
				
					<radialGradient id="SVGID_21_" cx="-2064.8962" cy="575.9484" r="9.968343e-02" gradientTransform="matrix(294.35 0 0 -294.35 607827.5 169543.5625)" gradientUnits="userSpaceOnUse">
					<stop  offset="0" style="stop-color:#F7BFA4"/>
					<stop  offset="5.000000e-02" style="stop-color:#F5A691"/>
					<stop  offset="0.43" style="stop-color:#E60012"/>
					<stop  offset="0.69" style="stop-color:#E40011"/>
					<stop  offset="0.79" style="stop-color:#DD0010"/>
					<stop  offset="0.87" style="stop-color:#D1000D"/>
					<stop  offset="0.93" style="stop-color:#BF0008"/>
					<stop  offset="0.98" style="stop-color:#A90002"/>
					<stop  offset="1" style="stop-color:#A00000"/>
				</radialGradient>
				<rect x="24.1" y="25.4" class="st14" width="17.2" height="9.7"/>
			</g>
		</g>
	</g>
	<g>
		<g>
			<defs>
				<path id="SVGID_22_" d="M23.1,33.4L23.1,33.4c0,0.1,0,0.1,0,0.2c0,0,0.1,0,0.2,0l0,0c1.8-0.9,9.2-4.7,12.3-7.7
					c0,0,2-1.6,2.1-4.1c0.2-3.5-3.3-6.7-3.3-6.7S27.9,23,23.1,33.4"/>
			</defs>
			<clipPath id="SVGID_23_">
				<use xlink:href="#SVGID_22_"  style="overflow:visible;"/>
			</clipPath>
			<g class="st15">
				
					<radialGradient id="SVGID_24_" cx="-2064.9119" cy="575.9589" r="9.968343e-02" gradientTransform="matrix(294.34 0 0 -294.34 607811.9375 169541.25)" gradientUnits="userSpaceOnUse">
					<stop  offset="0" style="stop-color:#F7BFA4"/>
					<stop  offset="5.000000e-02" style="stop-color:#F5A691"/>
					<stop  offset="0.43" style="stop-color:#E60012"/>
					<stop  offset="0.69" style="stop-color:#E40011"/>
					<stop  offset="0.79" style="stop-color:#DD0010"/>
					<stop  offset="0.87" style="stop-color:#D1000D"/>
					<stop  offset="0.93" style="stop-color:#BF0008"/>
					<stop  offset="0.98" style="stop-color:#A90002"/>
					<stop  offset="1" style="stop-color:#A00000"/>
				</radialGradient>
				<rect x="23.1" y="15.1" class="st16" width="14.9" height="18.6"/>
			</g>
		</g>
	</g>
</g>
</svg>
