<?xml version="1.0" encoding="utf-8"?>
<!-- Generator: Adobe Illustrator 22.0.1, SVG Export Plug-In . SVG Version: 6.00 Build 0)  -->
<svg version="1.1" id="Logo" xmlns="http://www.w3.org/2000/svg" xmlns:xlink="http://www.w3.org/1999/xlink" x="0px" y="0px"
	 viewBox="0 0 140 50" style="enable-background:new 0 0 140 50;" xml:space="preserve">
<style type="text/css">
	.st0{fill:#FE0000;}
	.st1{fill:#FFFFFF;}
</style>
<g>
	<g>
		<path class="st0" d="M70.4,0c-9.4,0-17,7.6-17,17s7.6,17,17,17c9.4,0,17-7.6,17-17S79.8,0,70.4,0z"/>
	</g>
	<g>
		<g>
			<path class="st1" d="M63.9,23.7c1.2,1.2,2.6,2,4.1,2.5c0.5,0.1,0.9,0.2,1.4,0.3c0.3,0,0.6,0,0.9,0.1c0.9,0,1.7-0.1,2.5-0.3
				c1.2-0.3,2.2-0.9,3.2-1.6c0.3-0.2,0.5-0.4,0.8-0.7c0.7-0.7,1.2-1.4,1.6-2.2c0.6-1.3,1-2.6,1-4.1c0-0.1,0-0.2,0-0.3
				c0-0.9-0.1-1.7-0.4-2.4c-0.2-0.8-0.6-1.5-1-2.1c0-0.1-0.1-0.1-0.1-0.2c-0.6-0.8-1.4-1.5-2.3-2.1c-1-0.6-2.2-1.1-3.5-1.4
				C72,9,72,9,72,8.9c0-3,1.9-5.5,4.6-6.4C76.8,2.4,77,2.3,77,2.3v0c0-0.1-0.3-0.1-0.5-0.1c-0.4,0-0.9,0-1.4,0.1
				c-0.6,0.1-1.4,0.2-2.1,0.4c-0.3,0.1-0.6,0.1-0.9,0.2c-0.4,0.1-0.9,0.3-1.4,0.5c-1.5,0.6-3.1,1.5-4.6,2.7
				c-2.1,1.8-3.9,4.4-4.7,7.5c-0.2,0.8-0.3,1.6-0.4,2.4c0,0,0,0.1,0,0.2c0,0.6,0,1.2,0,1.7c0,0.6,0.2,1.1,0.3,1.6c0,0.1,0,0.1,0,0.2
				c0.3,1,0.7,1.8,1.2,2.7C63,22.8,63.4,23.3,63.9,23.7z"/>
		</g>
	</g>
	<g>
		<g>
			<polygon class="st0" points="36,41 38.2,46.7 40.3,41 43,41 39.4,49.8 36.9,49.8 33.1,41 			"/>
			<path class="st0" d="M47.6,50c-2.8,0-4.6-2-4.6-4.6c0-2.6,1.8-4.6,4.6-4.6c2.9,0,4.6,2,4.6,4.6C52.2,48,50.5,50,47.6,50z
				 M47.6,42.8c-1.4,0-2,1.2-2,2.6c0,1.4,0.7,2.6,2,2.6c1.4,0,2-1.2,2-2.6C49.7,44,49,42.8,47.6,42.8z"/>
			<path class="st0" d="M62,37.4v12.2C61,49.8,59.8,50,58.3,50c-3,0-5-1.6-5-4.7c0-2.6,1.8-4.6,4.4-4.6c0.8,0,1.5,0.2,1.9,0.3v-3.7
				L62,37.4L62,37.4z M59.6,43.2c-0.4-0.2-1-0.4-1.7-0.4c-1.3,0-2.1,1.1-2.1,2.6c0,1.7,1.1,2.6,2.5,2.6c0.5,0,1,0,1.3-0.1V43.2
				L59.6,43.2z"/>
			<path class="st0" d="M63.2,45.6c0-2.8,2.1-4.8,5-4.8c1.4,0,2.9,0.4,3.8,0.7v8.3h-2.2L69.6,49c-0.5,0.6-1.2,1-2.4,1
				C64.9,50,63.2,48.3,63.2,45.6z M69.5,43c-0.3-0.1-0.8-0.2-1.4-0.2c-1.2,0-2.4,0.9-2.4,2.6c0,1.7,1,2.5,2,2.5
				c0.8,0,1.4-0.4,1.7-0.9L69.5,43L69.5,43z"/>
			<path class="st0" d="M76.6,37.2c0.6,0,1.4,0.1,1.9,0.2v2.1c-0.4,0-1-0.1-1.4-0.1c-0.6,0-0.8,0.1-1,0.3c-0.2,0.2-0.2,0.4-0.2,0.8
				V41h2.2v2.1h-2.2v6.7h-2.4v-9.5c0-1,0.3-1.8,0.9-2.3C74.9,37.4,75.7,37.2,76.6,37.2z"/>
			<path class="st0" d="M82.9,50c-2.9,0-4.6-2-4.6-4.6c0-2.6,1.8-4.6,4.6-4.6c2.9,0,4.6,2,4.6,4.6C87.5,48,85.8,50,82.9,50z
				 M82.9,42.8c-1.4,0-2,1.2-2,2.6c0,1.4,0.7,2.6,2,2.6c1.4,0,2-1.2,2-2.6C85,44,84.3,42.8,82.9,42.8z"/>
			<path class="st0" d="M94.9,44.9c0-1.3-0.7-2-2-2c-0.7,0-1.4,0.1-1.8,0.2v6.6h-2.4v-8.3c1.1-0.4,2.7-0.7,4.2-0.7
				c2.8,0,4.4,1.4,4.4,3.7v5.3h-2.4L94.9,44.9L94.9,44.9z"/>
			<path class="st0" d="M98.5,45.3c0-2.8,1.8-4.6,4.3-4.6c2.6,0,4.1,2,4.1,4.5c0,0.3,0,0.8,0,1h-5.9c0.1,1.3,0.9,1.9,2.5,1.9
				c1.4,0,2.5-0.3,3.1-0.5v1.6c-0.8,0.4-1.8,0.7-3.2,0.7C100.2,50,98.5,48.3,98.5,45.3z M104.6,44.4c-0.1-0.9-0.7-1.6-1.9-1.6
				s-1.7,0.6-1.8,1.6H104.6z"/>
		</g>
	</g>
</g>
</svg>
