<svg xmlns="http://www.w3.org/2000/svg" xmlns:xlink="http://www.w3.org/1999/xlink" viewBox="0 0 610.73 565.41"><defs><style>.cls-1{fill:none;}.cls-2{fill:url(#linear-gradient);}.cls-160,.cls-165,.cls-186,.cls-3{fill:#fff;}.cls-4{isolation:isolate;}.cls-5{fill:#f4f7fa;}.cls-6{fill:url(#linear-gradient-2);}.cls-15,.cls-160,.cls-165,.cls-186,.cls-7{mix-blend-mode:soft-light;}.cls-8{clip-path:url(#clip-path-2);}.cls-9{fill:url(#linear-gradient-3);}.cls-10{clip-path:url(#clip-path-3);}.cls-11{clip-path:url(#clip-path-4);}.cls-12{fill:#bec7d4;}.cls-13{fill:#d7dde7;}.cls-14{fill:url(#linear-gradient-5);}.cls-15,.cls-167,.cls-178,.cls-183,.cls-186{opacity:0.3;}.cls-16{opacity:0.69;}.cls-17{fill:url(#linear-gradient-6);}.cls-18{fill:url(#linear-gradient-7);}.cls-19{fill:url(#linear-gradient-8);}.cls-20{fill:url(#linear-gradient-9);}.cls-21{fill:url(#linear-gradient-10);}.cls-22{fill:url(#linear-gradient-11);}.cls-23{fill:url(#linear-gradient-12);}.cls-24{fill:url(#linear-gradient-13);}.cls-25{fill:url(#linear-gradient-14);}.cls-26{fill:url(#linear-gradient-15);}.cls-27{fill:url(#linear-gradient-16);}.cls-28{fill:url(#linear-gradient-17);}.cls-29{fill:url(#linear-gradient-18);}.cls-30{fill:url(#linear-gradient-19);}.cls-31{fill:url(#linear-gradient-20);}.cls-32{fill:url(#linear-gradient-21);}.cls-33{fill:url(#linear-gradient-22);}.cls-34{fill:url(#linear-gradient-23);}.cls-35{fill:url(#linear-gradient-24);}.cls-36{fill:url(#linear-gradient-25);}.cls-37{fill:url(#linear-gradient-26);}.cls-38{fill:url(#linear-gradient-27);}.cls-39{fill:url(#linear-gradient-28);}.cls-40{fill:url(#linear-gradient-29);}.cls-41{fill:url(#linear-gradient-30);}.cls-42{fill:url(#linear-gradient-31);}.cls-43{fill:url(#linear-gradient-32);}.cls-44{fill:url(#linear-gradient-33);}.cls-45{fill:url(#linear-gradient-34);}.cls-46{fill:url(#linear-gradient-35);}.cls-47{fill:url(#linear-gradient-36);}.cls-48{fill:url(#linear-gradient-37);}.cls-49{fill:url(#linear-gradient-38);}.cls-50{fill:url(#linear-gradient-39);}.cls-51{fill:url(#linear-gradient-40);}.cls-52{fill:url(#linear-gradient-41);}.cls-53{fill:url(#linear-gradient-42);}.cls-54{fill:url(#linear-gradient-43);}.cls-55{fill:url(#linear-gradient-44);}.cls-56{fill:url(#linear-gradient-45);}.cls-57{fill:url(#linear-gradient-46);}.cls-58{fill:url(#linear-gradient-47);}.cls-59{fill:url(#linear-gradient-48);}.cls-60{fill:url(#linear-gradient-49);}.cls-61{fill:url(#linear-gradient-50);}.cls-62{fill:url(#linear-gradient-51);}.cls-63{fill:url(#linear-gradient-52);}.cls-64{fill:url(#linear-gradient-53);}.cls-65{fill:url(#linear-gradient-54);}.cls-66{fill:url(#linear-gradient-55);}.cls-67{fill:url(#linear-gradient-56);}.cls-68{fill:url(#linear-gradient-57);}.cls-69{fill:url(#linear-gradient-58);}.cls-70{fill:url(#linear-gradient-59);}.cls-71{fill:url(#linear-gradient-60);}.cls-72{fill:url(#linear-gradient-61);}.cls-73{fill:url(#linear-gradient-62);}.cls-74{fill:url(#linear-gradient-63);}.cls-75{fill:url(#linear-gradient-64);}.cls-76{fill:url(#linear-gradient-65);}.cls-77{fill:url(#linear-gradient-66);}.cls-78{fill:url(#linear-gradient-67);}.cls-79{fill:url(#linear-gradient-68);}.cls-80{fill:url(#linear-gradient-69);}.cls-81{fill:url(#linear-gradient-70);}.cls-82{fill:url(#linear-gradient-71);}.cls-83{fill:url(#linear-gradient-72);}.cls-84{fill:url(#linear-gradient-73);}.cls-85{fill:url(#linear-gradient-74);}.cls-86{fill:url(#linear-gradient-75);}.cls-87{fill:url(#linear-gradient-76);}.cls-88{fill:url(#linear-gradient-77);}.cls-89{fill:url(#linear-gradient-78);}.cls-90{fill:url(#linear-gradient-79);}.cls-91{fill:url(#linear-gradient-80);}.cls-92{fill:url(#linear-gradient-81);}.cls-93{fill:url(#linear-gradient-82);}.cls-94{fill:url(#linear-gradient-83);}.cls-95{fill:url(#linear-gradient-84);}.cls-96{fill:url(#linear-gradient-85);}.cls-97{fill:url(#linear-gradient-86);}.cls-98{fill:url(#linear-gradient-87);}.cls-99{fill:url(#linear-gradient-88);}.cls-100{fill:url(#linear-gradient-89);}.cls-101{fill:url(#linear-gradient-90);}.cls-102{fill:url(#linear-gradient-91);}.cls-103{fill:url(#linear-gradient-92);}.cls-104{fill:url(#linear-gradient-93);}.cls-105{fill:url(#linear-gradient-94);}.cls-106{fill:url(#linear-gradient-95);}.cls-107{fill:url(#linear-gradient-96);}.cls-108{fill:url(#linear-gradient-97);}.cls-109{fill:url(#linear-gradient-98);}.cls-110{fill:url(#linear-gradient-99);}.cls-111{fill:url(#linear-gradient-100);}.cls-112{fill:url(#linear-gradient-101);}.cls-113{fill:url(#linear-gradient-102);}.cls-114{fill:url(#linear-gradient-103);}.cls-115{fill:url(#linear-gradient-104);}.cls-116{fill:url(#linear-gradient-105);}.cls-117{fill:url(#linear-gradient-106);}.cls-118{fill:url(#linear-gradient-107);}.cls-119{fill:url(#linear-gradient-108);}.cls-120{fill:url(#linear-gradient-109);}.cls-121{fill:url(#linear-gradient-110);}.cls-122{fill:url(#linear-gradient-111);}.cls-123{fill:url(#linear-gradient-112);}.cls-124{fill:url(#linear-gradient-113);}.cls-125{fill:url(#linear-gradient-114);}.cls-126{fill:url(#linear-gradient-115);}.cls-127{fill:url(#linear-gradient-116);}.cls-128{fill:url(#linear-gradient-117);}.cls-129{fill:url(#linear-gradient-118);}.cls-130{fill:url(#linear-gradient-119);}.cls-131{fill:url(#linear-gradient-120);}.cls-132{fill:url(#linear-gradient-121);}.cls-133{fill:url(#linear-gradient-122);}.cls-134{fill:url(#linear-gradient-123);}.cls-135{fill:url(#linear-gradient-124);}.cls-136{fill:url(#linear-gradient-125);}.cls-137{fill:url(#linear-gradient-126);}.cls-138{fill:url(#linear-gradient-127);}.cls-139{fill:url(#linear-gradient-128);}.cls-140{fill:url(#linear-gradient-129);}.cls-141{fill:url(#linear-gradient-130);}.cls-142{fill:url(#linear-gradient-131);}.cls-143{fill:url(#linear-gradient-132);}.cls-144{fill:url(#linear-gradient-133);}.cls-145{fill:url(#linear-gradient-134);}.cls-146{fill:url(#linear-gradient-135);}.cls-147{fill:url(#linear-gradient-136);}.cls-148{fill:url(#linear-gradient-137);}.cls-149{fill:url(#linear-gradient-138);}.cls-150{fill:url(#linear-gradient-139);}.cls-151{fill:url(#linear-gradient-140);}.cls-152{fill:url(#linear-gradient-141);}.cls-153{fill:url(#linear-gradient-142);}.cls-154{fill:url(#linear-gradient-143);}.cls-155{fill:url(#linear-gradient-144);}.cls-156{fill:url(#linear-gradient-145);}.cls-157{fill:url(#linear-gradient-146);}.cls-158{fill:url(#linear-gradient-147);}.cls-159{fill:url(#linear-gradient-148);}.cls-160{opacity:0.35;}.cls-161{fill:url(#linear-gradient-149);}.cls-162{fill:url(#linear-gradient-150);}.cls-163{fill:url(#linear-gradient-151);}.cls-164,.cls-183{fill:#32a2d3;}.cls-165{opacity:0.48;}.cls-166{fill:url(#linear-gradient-152);}.cls-167,.cls-178,.cls-183{mix-blend-mode:multiply;}.cls-167{fill:url(#linear-gradient-153);}.cls-168{opacity:0.75;}.cls-169{fill:url(#linear-gradient-154);}.cls-170{fill:url(#linear-gradient-155);}.cls-171{fill:url(#linear-gradient-156);}.cls-172{fill:url(#linear-gradient-157);}.cls-173{fill:url(#linear-gradient-158);}.cls-174{fill:url(#linear-gradient-159);}.cls-175{fill:url(#linear-gradient-160);}.cls-176{fill:url(#linear-gradient-161);}.cls-177{fill:url(#linear-gradient-162);}.cls-178{fill:url(#linear-gradient-163);}.cls-179{fill:url(#linear-gradient-164);}.cls-180{fill:url(#linear-gradient-165);}.cls-181{fill:url(#linear-gradient-166);}.cls-182{fill:url(#linear-gradient-167);}.cls-184{fill:url(#linear-gradient-168);}.cls-185{fill:url(#linear-gradient-169);}</style><linearGradient id="linear-gradient" x1="183.93" y1="251.76" x2="45.25" y2="365.68" gradientUnits="userSpaceOnUse"><stop offset="0" stop-color="#f08c82"/><stop offset="1" stop-color="#e26fa6"/></linearGradient><clipPath id="clip-path"><path class="cls-3" d="M243.81,322.94c-19.34-14.15-38.2-20.81-56.06-19.82-7.8.44-13.29,2.18-18.59,3.86-6.74,2.14-13.1,4.16-23.68,3.72-19-.8-35.23-7.26-45.69-18.2-16.2-16.93-19.8-45.31-9.17-72.29l.68.27c-10.52,26.71-7,54.79,9,71.52,10.33,10.8,26.38,17.18,45.19,18,10.45.43,16.75-1.57,23.43-3.68,5.35-1.7,10.88-3.45,18.77-3.9,18-1,37,5.71,56.53,20Z"/></clipPath><linearGradient id="linear-gradient-2" x1="74.59" y1="186.32" x2="233.99" y2="186.32" gradientUnits="userSpaceOnUse"><stop offset="0" stop-color="#f6bf48"/><stop offset="1" stop-color="#e76d55"/></linearGradient><clipPath id="clip-path-2"><path class="cls-1" d="M223.78,357.38c7.48-22.81,15.1-57.64,6.18-96.3-10.24-44.4-32.93-53.28-53.3-100.74C147.59,92.6,180.5,43.53,150.39,22.82c-14.68-10.09-37.76-10.1-52,0-40.61,28.93-29.48,154.9,34.95,204.06,29.13,22.23,54.56,19.59,76.42,48.36C229.09,300.7,227.58,334.23,223.78,357.38Z"/></clipPath><linearGradient id="linear-gradient-3" x1="-3540.94" y1="-1197.08" x2="-3220.22" y2="-1513.43" gradientTransform="matrix(-0.96, 0.27, 0.27, 0.96, -4713.63, 1375.4)" gradientUnits="userSpaceOnUse"><stop offset="0" stop-color="#c98dbc"/><stop offset="1" stop-color="#7a6eb1"/></linearGradient><clipPath id="clip-path-3"><path class="cls-1" d="M236.81,329.87c2.37-14.36,3.74-36.79-7.95-56.85-20.4-35-57.57-23.39-93.15-60.88C107,181.9,116.05,158.4,84.26,138.31c-5.33-3.37-33.45-21.88-54.37-10.73-11.78,6.28-16,19.18-16.85,21.6C.92,185.78,38.19,243.07,86.78,269.27c27.91,15.06,36.91,10.14,86,27.7A275.89,275.89,0,0,1,236.81,329.87Z"/></clipPath><clipPath id="clip-path-4"><path class="cls-2" d="M237.31,317.67a155,155,0,0,0-38.64-20.28c-31.28-11.09-45.61-4.55-58.85-17.77-13.71-13.69-4.83-27.17-21.24-42.45-1.38-1.29-19-17.28-34.94-11.32C72.49,230,68.15,242.68,66.11,248.62c-7.9,23.07-3.31,58.21,21.3,75.55,23.33,16.43,52.87,8.6,62.24,6.05,16.46-4.48,20.35-10.9,37.08-15C207.07,310.34,225.35,314,237.31,317.67Z"/></clipPath><linearGradient id="linear-gradient-5" x1="361.53" y1="15.82" x2="431.19" y2="54.86" gradientUnits="userSpaceOnUse"><stop offset="0" stop-color="#414986"/><stop offset="1" stop-color="#25264e"/></linearGradient><linearGradient id="linear-gradient-6" x1="349.6" y1="26.81" x2="351.33" y2="53.27" xlink:href="#linear-gradient"/><linearGradient id="linear-gradient-7" x1="355.9" y1="43.25" x2="356.13" y2="46.79" xlink:href="#linear-gradient"/><linearGradient id="linear-gradient-8" x1="361.35" y1="32.62" x2="362.54" y2="50.81" xlink:href="#linear-gradient"/><linearGradient id="linear-gradient-9" x1="367.35" y1="40.13" x2="367.88" y2="48.2" xlink:href="#linear-gradient"/><linearGradient id="linear-gradient-10" x1="372.81" y1="31.16" x2="374.12" y2="51.18" xlink:href="#linear-gradient"/><linearGradient id="linear-gradient-11" x1="378.7" y1="35.8" x2="379.61" y2="49.71" xlink:href="#linear-gradient"/><linearGradient id="linear-gradient-12" x1="384.15" y1="28.07" x2="385.71" y2="51.9" xlink:href="#linear-gradient"/><linearGradient id="linear-gradient-13" x1="389.78" y1="26.09" x2="391.5" y2="52.29" xlink:href="#linear-gradient"/><linearGradient id="linear-gradient-14" x1="395.81" y1="36.33" x2="396.68" y2="49.61" xlink:href="#linear-gradient"/><linearGradient id="linear-gradient-15" x1="401.05" y1="23.9" x2="402.92" y2="52.46" xlink:href="#linear-gradient"/><linearGradient id="linear-gradient-16" x1="406.81" y1="27.22" x2="408.41" y2="51.57" xlink:href="#linear-gradient"/><linearGradient id="linear-gradient-17" x1="412.97" y1="41.8" x2="413.41" y2="48.61" xlink:href="#linear-gradient"/><linearGradient id="linear-gradient-18" x1="418.33" y1="34.55" x2="419.34" y2="50" xlink:href="#linear-gradient"/><linearGradient id="linear-gradient-19" x1="423.72" y1="28.86" x2="425.17" y2="50.91" xlink:href="#linear-gradient"/><linearGradient id="linear-gradient-20" x1="429.5" y1="33.9" x2="430.56" y2="50.07" xlink:href="#linear-gradient"/><linearGradient id="linear-gradient-21" x1="434.79" y1="26.23" x2="436.41" y2="51.06" xlink:href="#linear-gradient"/><linearGradient id="linear-gradient-22" x1="440.25" y1="23.71" x2="442.05" y2="51.23" xlink:href="#linear-gradient"/><linearGradient id="linear-gradient-23" x1="361.71" y1="60.95" x2="431" y2="99.78" xlink:href="#linear-gradient-5"/><linearGradient id="linear-gradient-24" x1="349.6" y1="72.36" x2="351.33" y2="98.77" xlink:href="#linear-gradient"/><linearGradient id="linear-gradient-25" x1="355.9" y1="88.74" x2="356.13" y2="92.23" xlink:href="#linear-gradient"/><linearGradient id="linear-gradient-26" x1="361.35" y1="78.04" x2="362.54" y2="96.18" xlink:href="#linear-gradient"/><linearGradient id="linear-gradient-27" x1="367.36" y1="85.49" x2="367.88" y2="93.52" xlink:href="#linear-gradient"/><linearGradient id="linear-gradient-28" x1="372.81" y1="76.46" x2="374.12" y2="96.43" xlink:href="#linear-gradient"/><linearGradient id="linear-gradient-29" x1="378.7" y1="81.03" x2="379.61" y2="94.89" xlink:href="#linear-gradient"/><linearGradient id="linear-gradient-30" x1="384.15" y1="73.24" x2="385.71" y2="97.02" xlink:href="#linear-gradient"/><linearGradient id="linear-gradient-31" x1="389.78" y1="71.2" x2="391.49" y2="97.35" xlink:href="#linear-gradient"/><linearGradient id="linear-gradient-32" x1="395.82" y1="81.38" x2="396.68" y2="94.61" xlink:href="#linear-gradient"/><linearGradient id="linear-gradient-33" x1="401.05" y1="68.89" x2="402.92" y2="97.4" xlink:href="#linear-gradient"/><linearGradient id="linear-gradient-34" x1="406.81" y1="72.14" x2="408.41" y2="96.44" xlink:href="#linear-gradient"/><linearGradient id="linear-gradient-35" x1="412.97" y1="86.65" x2="413.41" y2="93.42" xlink:href="#linear-gradient"/><linearGradient id="linear-gradient-36" x1="418.33" y1="79.35" x2="419.34" y2="94.75" xlink:href="#linear-gradient"/><linearGradient id="linear-gradient-37" x1="423.73" y1="73.59" x2="425.17" y2="95.6" xlink:href="#linear-gradient"/><linearGradient id="linear-gradient-38" x1="429.5" y1="78.57" x2="430.56" y2="94.7" xlink:href="#linear-gradient"/><linearGradient id="linear-gradient-39" x1="434.79" y1="70.85" x2="436.41" y2="95.63" xlink:href="#linear-gradient"/><linearGradient id="linear-gradient-40" x1="440.25" y1="68.26" x2="442.05" y2="95.73" xlink:href="#linear-gradient"/><linearGradient id="linear-gradient-41" x1="361.89" y1="106.09" x2="430.81" y2="144.71" xlink:href="#linear-gradient-5"/><linearGradient id="linear-gradient-42" x1="349.6" y1="117.91" x2="351.33" y2="144.27" xlink:href="#linear-gradient"/><linearGradient id="linear-gradient-43" x1="355.9" y1="134.22" x2="356.13" y2="137.67" xlink:href="#linear-gradient"/><linearGradient id="linear-gradient-44" x1="361.35" y1="123.47" x2="362.54" y2="141.56" xlink:href="#linear-gradient"/><linearGradient id="linear-gradient-45" x1="367.36" y1="130.85" x2="367.88" y2="138.83" xlink:href="#linear-gradient"/><linearGradient id="linear-gradient-46" x1="372.81" y1="121.75" x2="374.12" y2="141.67" xlink:href="#linear-gradient"/><linearGradient id="linear-gradient-47" x1="378.7" y1="126.26" x2="379.6" y2="140.08" xlink:href="#linear-gradient"/><linearGradient id="linear-gradient-48" x1="384.15" y1="118.41" x2="385.71" y2="142.14" xlink:href="#linear-gradient"/><linearGradient id="linear-gradient-49" x1="389.78" y1="116.3" x2="391.49" y2="142.41" xlink:href="#linear-gradient"/><linearGradient id="linear-gradient-50" x1="395.82" y1="126.42" x2="396.68" y2="139.61" xlink:href="#linear-gradient"/><linearGradient id="linear-gradient-51" x1="401.05" y1="113.87" x2="402.92" y2="142.33" xlink:href="#linear-gradient"/><linearGradient id="linear-gradient-52" x1="406.81" y1="117.06" x2="408.4" y2="141.32" xlink:href="#linear-gradient"/><linearGradient id="linear-gradient-53" x1="412.97" y1="131.51" x2="413.41" y2="138.23" xlink:href="#linear-gradient"/><linearGradient id="linear-gradient-54" x1="418.33" y1="124.15" x2="419.34" y2="139.5" xlink:href="#linear-gradient"/><linearGradient id="linear-gradient-55" x1="423.73" y1="118.33" x2="425.17" y2="140.29" xlink:href="#linear-gradient"/><linearGradient id="linear-gradient-56" x1="429.5" y1="123.25" x2="430.56" y2="139.33" xlink:href="#linear-gradient"/><linearGradient id="linear-gradient-57" x1="434.79" y1="115.46" x2="436.41" y2="140.2" xlink:href="#linear-gradient"/><linearGradient id="linear-gradient-58" x1="440.25" y1="112.81" x2="442.05" y2="140.24" xlink:href="#linear-gradient"/><linearGradient id="linear-gradient-59" x1="362.07" y1="151.22" x2="430.61" y2="189.64" xlink:href="#linear-gradient-5"/><linearGradient id="linear-gradient-60" x1="349.6" y1="163.46" x2="351.33" y2="189.77" xlink:href="#linear-gradient"/><linearGradient id="linear-gradient-61" x1="355.91" y1="179.71" x2="356.13" y2="183.11" xlink:href="#linear-gradient"/><linearGradient id="linear-gradient-62" x1="361.35" y1="168.89" x2="362.54" y2="186.93" xlink:href="#linear-gradient"/><linearGradient id="linear-gradient-63" x1="367.36" y1="176.21" x2="367.88" y2="184.14" xlink:href="#linear-gradient"/><linearGradient id="linear-gradient-64" x1="372.81" y1="167.05" x2="374.12" y2="186.92" xlink:href="#linear-gradient"/><linearGradient id="linear-gradient-65" x1="378.7" y1="171.5" x2="379.6" y2="185.26" xlink:href="#linear-gradient"/><linearGradient id="linear-gradient-66" x1="384.15" y1="163.58" x2="385.71" y2="187.26" xlink:href="#linear-gradient"/><linearGradient id="linear-gradient-67" x1="389.78" y1="161.41" x2="391.49" y2="187.47" xlink:href="#linear-gradient"/><linearGradient id="linear-gradient-68" x1="395.82" y1="171.47" x2="396.68" y2="184.61" xlink:href="#linear-gradient"/><linearGradient id="linear-gradient-69" x1="401.05" y1="158.85" x2="402.91" y2="187.27" xlink:href="#linear-gradient"/><linearGradient id="linear-gradient-70" x1="406.82" y1="161.98" x2="408.4" y2="186.19" xlink:href="#linear-gradient"/><linearGradient id="linear-gradient-71" x1="412.97" y1="176.37" x2="413.41" y2="183.04" xlink:href="#linear-gradient"/><linearGradient id="linear-gradient-72" x1="418.33" y1="168.94" x2="419.34" y2="184.25" xlink:href="#linear-gradient"/><linearGradient id="linear-gradient-73" x1="423.73" y1="163.06" x2="425.17" y2="184.98" xlink:href="#linear-gradient"/><linearGradient id="linear-gradient-74" x1="429.5" y1="167.92" x2="430.55" y2="183.95" xlink:href="#linear-gradient"/><linearGradient id="linear-gradient-75" x1="434.79" y1="160.07" x2="436.41" y2="184.76" xlink:href="#linear-gradient"/><linearGradient id="linear-gradient-76" x1="440.25" y1="157.36" x2="442.05" y2="184.74" xlink:href="#linear-gradient"/><linearGradient id="linear-gradient-77" x1="362.25" y1="196.35" x2="430.42" y2="234.56" xlink:href="#linear-gradient-5"/><linearGradient id="linear-gradient-78" x1="349.6" y1="209" x2="351.32" y2="235.27" xlink:href="#linear-gradient"/><linearGradient id="linear-gradient-79" x1="355.91" y1="225.19" x2="356.13" y2="228.54" xlink:href="#linear-gradient"/><linearGradient id="linear-gradient-80" x1="361.35" y1="214.31" x2="362.53" y2="232.31" xlink:href="#linear-gradient"/><linearGradient id="linear-gradient-81" x1="367.36" y1="221.56" x2="367.88" y2="229.45" xlink:href="#linear-gradient"/><linearGradient id="linear-gradient-82" x1="372.82" y1="212.34" x2="374.12" y2="232.17" xlink:href="#linear-gradient"/><linearGradient id="linear-gradient-83" x1="378.7" y1="216.73" x2="379.6" y2="230.45" xlink:href="#linear-gradient"/><linearGradient id="linear-gradient-84" x1="384.16" y1="208.75" x2="385.71" y2="232.39" xlink:href="#linear-gradient"/><linearGradient id="linear-gradient-85" x1="389.78" y1="206.52" x2="391.49" y2="232.53" xlink:href="#linear-gradient"/><linearGradient id="linear-gradient-86" x1="395.82" y1="216.51" x2="396.68" y2="229.6" xlink:href="#linear-gradient"/><linearGradient id="linear-gradient-87" x1="401.05" y1="203.83" x2="402.91" y2="232.2" xlink:href="#linear-gradient"/><linearGradient id="linear-gradient-88" x1="406.82" y1="206.9" x2="408.4" y2="231.06" xlink:href="#linear-gradient"/><linearGradient id="linear-gradient-89" x1="412.97" y1="221.23" x2="413.41" y2="227.85" xlink:href="#linear-gradient"/><linearGradient id="linear-gradient-90" x1="418.33" y1="213.74" x2="419.34" y2="229" xlink:href="#linear-gradient"/><linearGradient id="linear-gradient-91" x1="423.73" y1="207.8" x2="425.16" y2="229.67" xlink:href="#linear-gradient"/><linearGradient id="linear-gradient-92" x1="429.5" y1="212.59" x2="430.55" y2="228.58" xlink:href="#linear-gradient"/><linearGradient id="linear-gradient-93" x1="434.79" y1="204.68" x2="436.41" y2="229.33" xlink:href="#linear-gradient"/><linearGradient id="linear-gradient-94" x1="440.25" y1="201.92" x2="442.04" y2="229.25" xlink:href="#linear-gradient"/><linearGradient id="linear-gradient-95" x1="362.43" y1="241.49" x2="430.23" y2="279.49" xlink:href="#linear-gradient-5"/><linearGradient id="linear-gradient-96" x1="349.6" y1="254.55" x2="351.32" y2="280.77" xlink:href="#linear-gradient"/><linearGradient id="linear-gradient-97" x1="355.91" y1="270.68" x2="356.12" y2="273.98" xlink:href="#linear-gradient"/><linearGradient id="linear-gradient-98" x1="361.35" y1="259.73" x2="362.53" y2="277.68" xlink:href="#linear-gradient"/><linearGradient id="linear-gradient-99" x1="367.36" y1="266.92" x2="367.87" y2="274.76" xlink:href="#linear-gradient"/><linearGradient id="linear-gradient-100" x1="372.82" y1="257.64" x2="374.11" y2="277.42" xlink:href="#linear-gradient"/><linearGradient id="linear-gradient-101" x1="378.7" y1="261.96" x2="379.6" y2="275.63" xlink:href="#linear-gradient"/><linearGradient id="linear-gradient-102" x1="384.16" y1="253.92" x2="385.7" y2="277.51" xlink:href="#linear-gradient"/><linearGradient id="linear-gradient-103" x1="389.79" y1="251.63" x2="391.49" y2="277.59" xlink:href="#linear-gradient"/><linearGradient id="linear-gradient-104" x1="395.82" y1="261.55" x2="396.68" y2="274.6" xlink:href="#linear-gradient"/><linearGradient id="linear-gradient-105" x1="401.05" y1="248.81" x2="402.91" y2="277.14" xlink:href="#linear-gradient"/><linearGradient id="linear-gradient-106" x1="406.82" y1="251.82" x2="408.4" y2="275.94" xlink:href="#linear-gradient"/><linearGradient id="linear-gradient-107" x1="412.98" y1="266.09" x2="413.41" y2="272.67" xlink:href="#linear-gradient"/><linearGradient id="linear-gradient-108" x1="418.34" y1="258.53" x2="419.33" y2="273.75" xlink:href="#linear-gradient"/><linearGradient id="linear-gradient-109" x1="423.73" y1="252.53" x2="425.16" y2="274.36" xlink:href="#linear-gradient"/><linearGradient id="linear-gradient-110" x1="429.51" y1="257.27" x2="430.55" y2="273.21" xlink:href="#linear-gradient"/><linearGradient id="linear-gradient-111" x1="434.79" y1="249.29" x2="436.41" y2="273.89" xlink:href="#linear-gradient"/><linearGradient id="linear-gradient-112" x1="440.25" y1="246.47" x2="442.04" y2="273.75" xlink:href="#linear-gradient"/><linearGradient id="linear-gradient-113" x1="362.61" y1="286.62" x2="430.04" y2="324.41" xlink:href="#linear-gradient-5"/><linearGradient id="linear-gradient-114" x1="349.6" y1="300.1" x2="351.32" y2="326.27" xlink:href="#linear-gradient"/><linearGradient id="linear-gradient-115" x1="355.91" y1="316.16" x2="356.12" y2="319.42" xlink:href="#linear-gradient"/><linearGradient id="linear-gradient-116" x1="361.36" y1="305.15" x2="362.53" y2="323.06" xlink:href="#linear-gradient"/><linearGradient id="linear-gradient-117" x1="367.36" y1="312.28" x2="367.87" y2="320.07" xlink:href="#linear-gradient"/><linearGradient id="linear-gradient-118" x1="372.82" y1="302.93" x2="374.11" y2="322.67" xlink:href="#linear-gradient"/><linearGradient id="linear-gradient-119" x1="378.7" y1="307.19" x2="379.6" y2="320.82" xlink:href="#linear-gradient"/><linearGradient id="linear-gradient-120" x1="384.16" y1="299.09" x2="385.7" y2="322.63" xlink:href="#linear-gradient"/><linearGradient id="linear-gradient-121" x1="389.79" y1="296.73" x2="391.49" y2="322.65" xlink:href="#linear-gradient"/><linearGradient id="linear-gradient-122" x1="395.82" y1="306.6" x2="396.67" y2="319.6" xlink:href="#linear-gradient"/><linearGradient id="linear-gradient-123" x1="401.05" y1="293.8" x2="402.91" y2="322.07" xlink:href="#linear-gradient"/><linearGradient id="linear-gradient-124" x1="406.82" y1="296.74" x2="408.4" y2="320.81" xlink:href="#linear-gradient"/><linearGradient id="linear-gradient-125" x1="412.98" y1="310.94" x2="413.41" y2="317.48" xlink:href="#linear-gradient"/><linearGradient id="linear-gradient-126" x1="418.34" y1="303.33" x2="419.33" y2="318.5" xlink:href="#linear-gradient"/><linearGradient id="linear-gradient-127" x1="423.73" y1="297.26" x2="425.16" y2="319.05" xlink:href="#linear-gradient"/><linearGradient id="linear-gradient-128" x1="429.51" y1="301.94" x2="430.55" y2="317.84" xlink:href="#linear-gradient"/><linearGradient id="linear-gradient-129" x1="434.79" y1="293.91" x2="436.4" y2="318.46" xlink:href="#linear-gradient"/><linearGradient id="linear-gradient-130" x1="440.26" y1="291.02" x2="442.04" y2="318.26" xlink:href="#linear-gradient"/><linearGradient id="linear-gradient-131" x1="362.79" y1="331.75" x2="429.85" y2="369.34" xlink:href="#linear-gradient-5"/><linearGradient id="linear-gradient-132" x1="349.6" y1="345.65" x2="351.32" y2="371.77" xlink:href="#linear-gradient"/><linearGradient id="linear-gradient-133" x1="355.91" y1="361.65" x2="356.12" y2="364.86" xlink:href="#linear-gradient"/><linearGradient id="linear-gradient-134" x1="361.36" y1="350.57" x2="362.53" y2="368.43" xlink:href="#linear-gradient"/><linearGradient id="linear-gradient-135" x1="367.36" y1="357.64" x2="367.87" y2="365.38" xlink:href="#linear-gradient"/><linearGradient id="linear-gradient-136" x1="372.82" y1="348.23" x2="374.11" y2="367.91" xlink:href="#linear-gradient"/><linearGradient id="linear-gradient-137" x1="378.7" y1="352.42" x2="379.59" y2="366" xlink:href="#linear-gradient"/><linearGradient id="linear-gradient-138" x1="384.16" y1="344.26" x2="385.7" y2="367.75" xlink:href="#linear-gradient"/><linearGradient id="linear-gradient-139" x1="389.79" y1="341.84" x2="391.48" y2="367.71" xlink:href="#linear-gradient"/><linearGradient id="linear-gradient-140" x1="395.82" y1="351.64" x2="396.67" y2="364.6" xlink:href="#linear-gradient"/><linearGradient id="linear-gradient-141" x1="401.06" y1="338.78" x2="402.91" y2="367.01" xlink:href="#linear-gradient"/><linearGradient id="linear-gradient-142" x1="406.82" y1="341.66" x2="408.4" y2="365.68" xlink:href="#linear-gradient"/><linearGradient id="linear-gradient-143" x1="412.98" y1="355.8" x2="413.4" y2="362.29" xlink:href="#linear-gradient"/><linearGradient id="linear-gradient-144" x1="418.34" y1="348.13" x2="419.33" y2="363.25" xlink:href="#linear-gradient"/><linearGradient id="linear-gradient-145" x1="423.73" y1="342" x2="425.16" y2="363.73" xlink:href="#linear-gradient"/><linearGradient id="linear-gradient-146" x1="429.51" y1="346.61" x2="430.55" y2="362.46" xlink:href="#linear-gradient"/><linearGradient id="linear-gradient-147" x1="434.8" y1="338.52" x2="436.4" y2="363.03" xlink:href="#linear-gradient"/><linearGradient id="linear-gradient-148" x1="440.26" y1="335.57" x2="442.04" y2="362.76" xlink:href="#linear-gradient"/><linearGradient id="linear-gradient-149" x1="277.59" y1="539.65" x2="237.07" y2="556.67" gradientUnits="userSpaceOnUse"><stop offset="0" stop-color="#3e4279"/><stop offset="1" stop-color="#3a3a67"/></linearGradient><linearGradient id="linear-gradient-150" x1="211.66" y1="359.52" x2="169.65" y2="377.17" xlink:href="#linear-gradient-149"/><linearGradient id="linear-gradient-151" x1="33.99" y1="369.7" x2="416.83" y2="369.7" xlink:href="#linear-gradient-149"/><linearGradient id="linear-gradient-152" x1="33.99" y1="521.76" x2="610.73" y2="521.76" xlink:href="#linear-gradient-149"/><linearGradient id="linear-gradient-153" x1="90.54" y1="517" x2="513.12" y2="517" xlink:href="#linear-gradient-149"/><linearGradient id="linear-gradient-154" x1="718.73" y1="454" x2="363.15" y2="353.38" xlink:href="#linear-gradient-2"/><linearGradient id="linear-gradient-155" x1="717.8" y1="457.29" x2="362.22" y2="356.67" xlink:href="#linear-gradient-2"/><linearGradient id="linear-gradient-156" x1="353.83" y1="229.29" x2="359.39" y2="678.31" xlink:href="#linear-gradient-2"/><linearGradient id="linear-gradient-157" x1="-4722.71" y1="223.11" x2="-4712.79" y2="223.11" gradientTransform="matrix(-1, 0, 0, 1, -4319.06, 0)" gradientUnits="userSpaceOnUse"><stop offset="0" stop-color="#2f1c42"/><stop offset="1" stop-color="#833871"/></linearGradient><linearGradient id="linear-gradient-158" x1="3181.36" y1="480.23" x2="3185.24" y2="529.69" gradientTransform="translate(-2691.46)" gradientUnits="userSpaceOnUse"><stop offset="0" stop-color="#2f1c42"/><stop offset="1" stop-color="#993870"/></linearGradient><linearGradient id="linear-gradient-159" x1="3191.39" y1="507.76" x2="3190.68" y2="456.54" gradientTransform="translate(-2691.46)" xlink:href="#linear-gradient-2"/><linearGradient id="linear-gradient-160" x1="3254.79" y1="474.46" x2="3258.68" y2="523.92" xlink:href="#linear-gradient-158"/><linearGradient id="linear-gradient-161" x1="3258.69" y1="506.84" x2="3257.98" y2="455.61" gradientTransform="translate(-2691.46)" xlink:href="#linear-gradient-2"/><linearGradient id="linear-gradient-162" x1="3179.16" y1="424.78" x2="3217.04" y2="424.78" gradientTransform="translate(-2691.46)" gradientUnits="userSpaceOnUse"><stop offset="0" stop-color="#414986"/><stop offset="1" stop-color="#3c4073"/></linearGradient><linearGradient id="linear-gradient-163" x1="3179.16" y1="424.79" x2="3217.04" y2="424.79" xlink:href="#linear-gradient-162"/><linearGradient id="linear-gradient-164" x1="3189.68" y1="421.05" x2="3265.92" y2="421.05" xlink:href="#linear-gradient-162"/><linearGradient id="linear-gradient-165" x1="-4812.7" y1="251.07" x2="-4808.4" y2="284.72" xlink:href="#linear-gradient-157"/><linearGradient id="linear-gradient-166" x1="-4810.26" y1="244.51" x2="-4812.17" y2="221.6" gradientTransform="matrix(-1, 0, 0, 1, -4319.06, 0)" gradientUnits="userSpaceOnUse"><stop offset="0" stop-color="#25264e"/><stop offset="1" stop-color="#414986"/></linearGradient><linearGradient id="linear-gradient-167" x1="-4822.14" y1="229.63" x2="-4804.48" y2="248.24" xlink:href="#linear-gradient-157"/><linearGradient id="linear-gradient-168" x1="921.88" y1="280.1" x2="349.62" y2="42.47" gradientTransform="translate(165.99 164.87) rotate(-7.9)" gradientUnits="userSpaceOnUse"><stop offset="0.1" stop-color="#2f1c42"/><stop offset="0.26" stop-color="#351d45"/><stop offset="0.47" stop-color="#44204e"/><stop offset="0.51" stop-color="#492150"/><stop offset="0.69" stop-color="#5b285a"/><stop offset="1" stop-color="#833871"/></linearGradient><linearGradient id="linear-gradient-169" x1="894.27" y1="268.15" x2="321.99" y2="30.51" gradientTransform="translate(165.99 164.87) rotate(-7.9)" gradientUnits="userSpaceOnUse"><stop offset="0.1" stop-color="#2f1c42"/><stop offset="0.27" stop-color="#351e45"/><stop offset="0.49" stop-color="#44234e"/><stop offset="0.74" stop-color="#5f2c5d"/><stop offset="1" stop-color="#833871"/><stop offset="1" stop-color="#833871"/></linearGradient></defs><title>signup</title><g class="cls-4"><g id="图层_2" data-name="图层 2"><g id="图层_1-2" data-name="图层 1"><g id="Database"><path class="cls-5" d="M411.73,25.3c-41.18-8.75-84-12.95-125.84-10.28-37.1,2.38-79.15,8.85-109,32C162.66,58.11,145.69,78,141,95.49c0,0-24.5,92.21-73.49,112s-83,357,288.5,324c0,0,218.2-8.63,231.34-257.2,3.17-60,1.4-126-36.62-176.26-29.14-38.48-70-55.59-116.87-67.56Q422.91,27.69,411.73,25.3Z"/><path class="cls-6" d="M223.78,357.38c7.48-22.81,15.1-57.64,6.18-96.3-10.24-44.4-32.93-53.28-53.3-100.74C147.59,92.6,180.5,43.53,150.39,22.82c-14.68-10.09-37.76-10.1-52,0-40.61,28.93-29.48,154.9,34.95,204.06,29.13,22.23,54.56,19.59,76.42,48.36C229.09,300.7,227.58,334.23,223.78,357.38Z"/><g class="cls-7"><g class="cls-8"><path class="cls-3" d="M228.36,300a173.39,173.39,0,0,0-9.76-28c-9.27-20.68-19.49-32.06-32.44-46.46a403.08,403.08,0,0,1-29.1-35.33c-20.7-28.58-27.13-38.62-32.89-54.81a160,160,0,0,1-7.59-75A155.74,155.74,0,0,1,136.77,3.11l.63.37a154.94,154.94,0,0,0-20.09,57,159.11,159.11,0,0,0,7.55,74.66c5.73,16.09,12.14,26.1,32.8,54.62a404.55,404.55,0,0,0,29,35.27c13,14.45,23.26,25.87,32.57,46.65a173.87,173.87,0,0,1,9.79,28.14Z"/><path class="cls-3" d="M118.61,112.74l-.53-.29A84.44,84.44,0,0,1,95.25,92.32C85.39,79.9,74.66,58.94,79.62,29.61l.72.12C75.43,58.78,86,79.55,95.81,91.85a85.22,85.22,0,0,0,22.1,19.66c.66-23.43,15.68-38.62,28.23-47.25a103.62,103.62,0,0,1,27.59-13.32l.2.71a102.18,102.18,0,0,0-27.39,13.23C134,73.49,119,88.68,118.62,112.14Z"/><path class="cls-3" d="M122,188.09a63.35,63.35,0,0,1-39.66-13.26l.45-.58c29.62,23.05,64.84,9,68.34,7.51-6-23.14-.69-40.2,4.82-50.46a56,56,0,0,1,13.63-17l.44.58a55.33,55.33,0,0,0-13.44,16.77c-5.46,10.18-10.7,27.16-4.66,50.2l.08.29-.28.13A79.38,79.38,0,0,1,122,188.09Z"/><path class="cls-3" d="M149.17,232.22c-9.12,0-20-1.66-32.74-6.3l.25-.69c41.62,15.21,63.84-1.83,66.13-3.73-10.13-23.7,4.14-62,4.28-62.4l.69.26c-.15.38-14.41,38.69-4.19,62.1l.1.24-.19.17C183.34,222,171.79,232.22,149.17,232.22Z"/></g></g><path class="cls-9" d="M236.81,329.87c2.37-14.36,3.74-36.79-7.95-56.85-20.4-35-57.57-23.39-93.15-60.88C107,181.9,116.05,158.4,84.26,138.31c-5.33-3.37-33.45-21.88-54.37-10.73-11.78,6.28-16,19.18-16.85,21.6C.92,185.78,38.19,243.07,86.78,269.27c27.91,15.06,36.91,10.14,86,27.7A275.89,275.89,0,0,1,236.81,329.87Z"/><g class="cls-7"><g class="cls-10"><path class="cls-3" d="M240.9,347.16c-7.1-34.14-20.56-57.06-40-68.13-9.48-5.4-17-6.25-25.06-7.16-8.76-1-17.82-2-29.8-9.26-11.66-7.05-15.83-13.83-21.11-22.4a135,135,0,0,0-23.62-29.71,143.68,143.68,0,0,0-27.22-20.81c-8.07-5-14.45-9-21.86-18.66C40.19,155.22,33.88,135,33.51,110.82h.73c.37,24,6.63,44.09,18.59,59.78,7.33,9.59,13.66,13.51,21.67,18.48A144.29,144.29,0,0,1,101.84,210a135.49,135.49,0,0,1,23.73,29.86c5.23,8.49,9.36,15.19,20.86,22.15,11.85,7.16,20.83,8.18,29.51,9.16,8.09.92,15.74,1.78,25.34,7.26,19.62,11.17,33.19,34.26,40.34,68.61Z"/><path class="cls-3" d="M74.54,191.8a93.49,93.49,0,0,1-55-17.78A88.58,88.58,0,0,1,0,155.11l.6-.42A88,88,0,0,0,20,173.45,92.79,92.79,0,0,0,77,191c-1.56-5-14.59-49.06,2.26-68l.55.49c-17.51,19.65-2.12,67.24-2,67.72l.15.47h-.49C76.53,191.78,75.53,191.8,74.54,191.8Z"/><path class="cls-3" d="M72.62,232.39a109.52,109.52,0,0,1-56.75-15.53l.38-.63a110.07,110.07,0,0,0,67.48,14.9A110,110,0,0,0,114,224c-6.77-25-.74-60.16-.68-60.51l.73.12c-.07.36-6.12,35.69.74,60.51l.08.3-.28.13c-.13,0-12.53,5.52-30.8,7.28C80.4,232.18,76.65,232.39,72.62,232.39Z"/><path class="cls-3" d="M94.27,290.35c-1.22,0-2.44,0-3.69,0l0-.73c25.53.55,45.17-4.75,57.16-9.3a96.93,96.93,0,0,0,19.8-9.88c-18.74-23.28-11.4-61.29-11.32-61.67l.71.14c-.07.38-7.41,38.39,11.42,61.37l.24.3-.31.23C168,271,141.11,290.35,94.27,290.35Z"/></g></g><g class="cls-7"><path class="cls-2" d="M237.31,317.67a155,155,0,0,0-38.64-20.28c-31.28-11.09-45.61-4.55-58.85-17.77-13.71-13.69-4.83-27.17-21.24-42.45-1.38-1.29-19-17.28-34.94-11.32C72.49,230,68.15,242.68,66.11,248.62c-7.9,23.07-3.31,58.21,21.3,75.55,23.33,16.43,52.87,8.6,62.24,6.05,16.46-4.48,20.35-10.9,37.08-15C207.07,310.34,225.35,314,237.31,317.67Z"/><g class="cls-11"><path class="cls-3" d="M243.81,322.94c-19.34-14.15-38.2-20.81-56.06-19.82-7.8.44-13.29,2.18-18.59,3.86-6.74,2.14-13.1,4.16-23.68,3.72-19-.8-35.23-7.26-45.69-18.2-16.2-16.93-19.8-45.31-9.17-72.29l.68.27c-10.52,26.71-7,54.79,9,71.52,10.33,10.8,26.38,17.18,45.19,18,10.45.43,16.75-1.57,23.43-3.68,5.35-1.7,10.88-3.45,18.77-3.9,18-1,37,5.71,56.53,20Z"/><path class="cls-3" d="M92.63,281.71l-.53-.19c-.31-.11-31.14-11.38-33-35.28l.73-.06c1.74,21.72,28,32.85,32,34.45-1.85-30.81,35.37-47.82,35.75-48l.29.67c-.37.17-37.58,17.18-35.28,47.84Z"/><path class="cls-3" d="M98.45,318.18c-11.2,0-25.51-2.74-41.85-12l.36-.64c22.91,13,41.78,13.09,53.57,10.82a53.69,53.69,0,0,0,20-7.87c-17.87-25.11,3.91-54.93,4.14-55.23l.58.44c-.22.29-21.86,29.92-3.92,54.66l.21.29-.28.22c-.07.05-7.64,5.74-20.56,8.21A64.82,64.82,0,0,1,98.45,318.18Z"/></g></g><path class="cls-12" d="M194.57,20v360a7.87,7.87,0,0,0,6.32,7.73l92.48,18.68,25.17-238.39L294.15.06,201.43,12.2A7.89,7.89,0,0,0,194.57,20Z"/><path class="cls-13" d="M457.66,6.53,294.82,0c-6.42-.26-11.64,4.3-11.64,10.19V396.45c0,5.89,5.22,10.36,11.64,10l162.84-9.32c5.91-.34,10.69-5.18,10.69-10.8V17.14C468.35,11.52,463.57,6.77,457.66,6.53Z"/><path class="cls-3" d="M294.41,45.15V17.82c0-4.18,3.7-7.43,8.26-7.26l147.71,5.55A7.82,7.82,0,0,1,458,23.68V49.94A7.22,7.22,0,0,1,450.38,57L302.67,53C298.11,52.83,294.41,49.34,294.41,45.15Z"/><path class="cls-13" d="M309.8,20.88a3.51,3.51,0,0,1-3.8,3.36,3.82,3.82,0,0,1-3.81-3.63A3.5,3.5,0,0,1,306,17.25,3.82,3.82,0,0,1,309.8,20.88Z"/><path class="cls-13" d="M321.81,21.3A3.49,3.49,0,0,1,318,24.65,3.8,3.8,0,0,1,314.24,21,3.5,3.5,0,0,1,318,17.68,3.81,3.81,0,0,1,321.81,21.3Z"/><path class="cls-13" d="M333.75,21.72A3.47,3.47,0,0,1,330,25.06a3.77,3.77,0,0,1-3.76-3.6A3.48,3.48,0,0,1,330,18.11,3.79,3.79,0,0,1,333.75,21.72Z"/><polygon class="cls-14" points="449.68 50.4 341.25 47.25 341.25 18.52 449.68 22.43 449.68 50.4"/><g class="cls-15"><polygon class="cls-3" points="351.81 45.53 348.54 45.44 348.54 22.24 351.81 22.36 351.81 45.53"/><polygon class="cls-3" points="357.61 45.71 354.35 45.61 354.35 22.45 357.61 22.56 357.61 45.71"/><polygon class="cls-3" points="363.4 45.88 360.15 45.78 360.15 22.65 363.4 22.76 363.4 45.88"/><polygon class="cls-3" points="369.17 46.05 365.93 45.95 365.93 22.85 369.17 22.97 369.17 46.05"/><polygon class="cls-3" points="374.93 46.22 371.69 46.12 371.69 23.06 374.93 23.17 374.93 46.22"/><polygon class="cls-3" points="380.66 46.39 377.44 46.29 377.44 23.26 380.66 23.37 380.66 46.39"/><polygon class="cls-3" points="386.39 46.56 383.17 46.46 383.17 23.46 386.39 23.57 386.39 46.56"/><polygon class="cls-3" points="392.09 46.73 388.88 46.63 388.88 23.66 392.09 23.77 392.09 46.73"/><polygon class="cls-3" points="397.78 46.89 394.58 46.8 394.58 23.86 397.78 23.97 397.78 46.89"/><polygon class="cls-3" points="403.46 47.06 400.27 46.97 400.27 24.06 403.46 24.17 403.46 47.06"/><polygon class="cls-3" points="409.12 47.23 405.94 47.13 405.94 24.26 409.12 24.37 409.12 47.23"/><polygon class="cls-3" points="414.76 47.4 411.59 47.3 411.59 24.46 414.76 24.57 414.76 47.4"/><polygon class="cls-3" points="420.39 47.56 417.22 47.47 417.22 24.66 420.39 24.77 420.39 47.56"/><polygon class="cls-3" points="426 47.73 422.84 47.63 422.84 24.86 426 24.97 426 47.73"/><polygon class="cls-3" points="431.6 47.89 428.45 47.8 428.45 25.05 431.6 25.16 431.6 47.89"/><polygon class="cls-3" points="437.18 48.06 434.04 47.97 434.04 25.25 437.18 25.36 437.18 48.06"/><polygon class="cls-3" points="442.74 48.22 439.61 48.13 439.61 25.45 442.74 25.55 442.74 48.22"/></g><g class="cls-16"><polygon class="cls-17" points="351.81 45.53 348.54 45.44 348.54 25.7 351.81 25.81 351.81 45.53"/><polygon class="cls-18" points="357.61 45.71 354.35 45.61 354.35 43.24 357.61 43.34 357.61 45.71"/><polygon class="cls-19" points="363.4 45.88 360.15 45.78 360.15 32.31 363.4 32.41 363.4 45.88"/><polygon class="cls-20" points="369.17 46.05 365.93 45.95 365.93 40.14 369.17 40.24 369.17 46.05"/><polygon class="cls-21" points="374.93 46.22 371.69 46.12 371.69 31.26 374.93 31.37 374.93 46.22"/><polygon class="cls-22" points="380.66 46.39 377.44 46.29 377.44 36.06 380.66 36.16 380.66 46.39"/><polygon class="cls-23" points="386.39 46.56 383.17 46.46 383.17 28.71 386.39 28.82 386.39 46.56"/><polygon class="cls-24" points="392.09 46.73 388.88 46.63 388.88 27.09 392.09 27.2 392.09 46.73"/><polygon class="cls-25" points="397.78 46.89 394.58 46.8 394.58 37.04 397.78 37.14 397.78 46.89"/><polygon class="cls-26" points="403.46 47.06 400.27 46.97 400.27 25.63 403.46 25.74 403.46 47.06"/><polygon class="cls-27" points="409.12 47.23 405.94 47.13 405.94 28.99 409.12 29.09 409.12 47.23"/><polygon class="cls-28" points="414.76 47.4 411.59 47.3 411.59 42.44 414.76 42.54 414.76 47.4"/><polygon class="cls-29" points="420.39 47.56 417.22 47.47 417.22 36.06 420.39 36.16 420.39 47.56"/><polygon class="cls-30" points="426 47.73 422.84 47.63 422.84 31.22 426 31.32 426 47.73"/><polygon class="cls-31" points="431.6 47.89 428.45 47.8 428.45 35.84 431.6 35.95 431.6 47.89"/><polygon class="cls-32" points="437.18 48.06 434.04 47.97 434.04 29.45 437.18 29.55 437.18 48.06"/><polygon class="cls-33" points="442.74 48.22 439.61 48.13 439.61 27.57 442.74 27.68 442.74 48.22"/></g><path class="cls-3" d="M294.41,91.3V64c0-4.18,3.7-7.47,8.26-7.35l147.71,3.92A7.71,7.71,0,0,1,458,68V94.28a7.32,7.32,0,0,1-7.65,7.15L302.67,99C298.11,98.94,294.41,95.49,294.41,91.3Z"/><path class="cls-13" d="M309.8,66.86a3.55,3.55,0,0,1-3.8,3.4,3.76,3.76,0,0,1-3.81-3.59,3.55,3.55,0,0,1,3.81-3.4A3.77,3.77,0,0,1,309.8,66.86Z"/><path class="cls-13" d="M321.81,67.15A3.54,3.54,0,0,1,318,70.54,3.76,3.76,0,0,1,314.24,67,3.55,3.55,0,0,1,318,63.57,3.75,3.75,0,0,1,321.81,67.15Z"/><path class="cls-13" d="M333.75,67.44A3.52,3.52,0,0,1,330,70.82a3.73,3.73,0,0,1-3.76-3.57A3.52,3.52,0,0,1,330,63.87,3.73,3.73,0,0,1,333.75,67.44Z"/><polygon class="cls-34" points="449.68 94.83 341.25 92.88 341.25 64.15 449.68 66.86 449.68 94.83"/><g class="cls-15"><polygon class="cls-3" points="351.81 91.05 348.54 90.99 348.54 67.79 351.81 67.87 351.81 91.05"/><polygon class="cls-3" points="357.61 91.16 354.35 91.1 354.35 67.93 357.61 68.01 357.61 91.16"/><polygon class="cls-3" points="363.4 91.26 360.15 91.2 360.15 68.07 363.4 68.15 363.4 91.26"/><polygon class="cls-3" points="369.17 91.37 365.93 91.31 365.93 68.21 369.17 68.29 369.17 91.37"/><polygon class="cls-3" points="374.93 91.48 371.69 91.42 371.69 68.35 374.93 68.43 374.93 91.48"/><polygon class="cls-3" points="380.66 91.58 377.44 91.52 377.44 68.49 380.66 68.57 380.66 91.58"/><polygon class="cls-3" points="386.39 91.69 383.17 91.63 383.17 68.63 386.39 68.7 386.39 91.69"/><polygon class="cls-3" points="392.09 91.8 388.88 91.74 388.88 68.77 392.09 68.84 392.09 91.8"/><polygon class="cls-3" points="397.78 91.9 394.58 91.84 394.58 68.9 397.78 68.98 397.78 91.9"/><polygon class="cls-3" points="403.46 92 400.27 91.95 400.27 69.04 403.46 69.12 403.46 92"/><polygon class="cls-3" points="409.12 92.11 405.94 92.05 405.94 69.18 409.12 69.25 409.12 92.11"/><polygon class="cls-3" points="414.76 92.22 411.59 92.16 411.59 69.31 414.76 69.39 414.76 92.22"/><polygon class="cls-3" points="420.39 92.32 417.22 92.26 417.22 69.45 420.39 69.53 420.39 92.32"/><polygon class="cls-3" points="426 92.42 422.84 92.36 422.84 69.58 426 69.66 426 92.42"/><polygon class="cls-3" points="431.6 92.53 428.45 92.47 428.45 69.72 431.6 69.8 431.6 92.53"/><polygon class="cls-3" points="437.18 92.63 434.04 92.57 434.04 69.86 437.18 69.93 437.18 92.63"/><polygon class="cls-3" points="442.74 92.73 439.61 92.67 439.61 69.99 442.74 70.06 442.74 92.73"/></g><g class="cls-16"><polygon class="cls-35" points="351.81 91.05 348.54 90.99 348.54 71.25 351.81 71.33 351.81 91.05"/><polygon class="cls-36" points="357.61 91.16 354.35 91.1 354.35 88.72 357.61 88.79 357.61 91.16"/><polygon class="cls-37" points="363.4 91.26 360.15 91.2 360.15 77.73 363.4 77.8 363.4 91.26"/><polygon class="cls-38" points="369.17 91.37 365.93 91.31 365.93 85.5 369.17 85.57 369.17 91.37"/><polygon class="cls-39" points="374.93 91.48 371.69 91.42 371.69 76.56 374.93 76.63 374.93 91.48"/><polygon class="cls-40" points="380.66 91.58 377.44 91.52 377.44 81.29 380.66 81.36 380.66 91.58"/><polygon class="cls-41" points="386.39 91.69 383.17 91.63 383.17 73.88 386.39 73.96 386.39 91.69"/><polygon class="cls-42" points="392.09 91.8 388.88 91.74 388.88 72.19 392.09 72.27 392.09 91.8"/><polygon class="cls-43" points="397.78 91.9 394.58 91.84 394.58 82.08 397.78 82.15 397.78 91.9"/><polygon class="cls-44" points="403.46 92 400.27 91.95 400.27 70.61 403.46 70.68 403.46 92"/><polygon class="cls-45" points="409.12 92.11 405.94 92.05 405.94 73.9 409.12 73.98 409.12 92.11"/><polygon class="cls-46" points="414.76 92.22 411.59 92.16 411.59 87.3 414.76 87.36 414.76 92.22"/><polygon class="cls-47" points="420.39 92.32 417.22 92.26 417.22 80.86 420.39 80.92 420.39 92.32"/><polygon class="cls-48" points="426 92.42 422.84 92.36 422.84 75.95 426 76.02 426 92.42"/><polygon class="cls-49" points="431.6 92.53 428.45 92.47 428.45 80.51 431.6 80.58 431.6 92.53"/><polygon class="cls-50" points="437.18 92.63 434.04 92.57 434.04 74.05 437.18 74.13 437.18 92.63"/><polygon class="cls-51" points="442.74 92.73 439.61 92.67 439.61 72.12 442.74 72.19 442.74 92.73"/></g><path class="cls-3" d="M294.41,137.45V110.12c0-4.18,3.7-7.52,8.26-7.44L450.38,105a7.61,7.61,0,0,1,7.65,7.4v26.26a7.42,7.42,0,0,1-7.65,7.24l-147.71-.79C298.11,145,294.41,141.63,294.41,137.45Z"/><path class="cls-13" d="M309.8,112.84a3.6,3.6,0,0,1-3.8,3.44,3.71,3.71,0,0,1-3.81-3.54,3.6,3.6,0,0,1,3.81-3.45A3.72,3.72,0,0,1,309.8,112.84Z"/><path class="cls-13" d="M321.81,113a3.59,3.59,0,0,1-3.78,3.44,3.71,3.71,0,0,1-3.79-3.54,3.59,3.59,0,0,1,3.79-3.43A3.7,3.7,0,0,1,321.81,113Z"/><path class="cls-13" d="M333.75,113.15a3.56,3.56,0,0,1-3.76,3.42,3.67,3.67,0,0,1-3.76-3.52,3.56,3.56,0,0,1,3.76-3.42A3.68,3.68,0,0,1,333.75,113.15Z"/><polygon class="cls-52" points="449.68 139.27 341.25 138.51 341.25 109.78 449.68 111.29 449.68 139.27"/><g class="cls-15"><polygon class="cls-3" points="351.81 136.56 348.54 136.54 348.54 113.34 351.81 113.39 351.81 136.56"/><polygon class="cls-3" points="357.61 136.61 354.35 136.58 354.35 113.42 357.61 113.46 357.61 136.61"/><polygon class="cls-3" points="363.4 136.65 360.15 136.63 360.15 113.5 363.4 113.54 363.4 136.65"/><polygon class="cls-3" points="369.17 136.69 365.93 136.67 365.93 113.57 369.17 113.61 369.17 136.69"/><polygon class="cls-3" points="374.93 136.74 371.69 136.71 371.69 113.65 374.93 113.69 374.93 136.74"/><polygon class="cls-3" points="380.66 136.78 377.44 136.76 377.44 113.72 380.66 113.76 380.66 136.78"/><polygon class="cls-3" points="386.39 136.82 383.17 136.8 383.17 113.8 386.39 113.84 386.39 136.82"/><polygon class="cls-3" points="392.09 136.87 388.88 136.84 388.88 113.87 392.09 113.91 392.09 136.87"/><polygon class="cls-3" points="397.78 136.91 394.58 136.88 394.58 113.94 397.78 113.99 397.78 136.91"/><polygon class="cls-3" points="403.46 136.95 400.27 136.93 400.27 114.02 403.46 114.06 403.46 136.95"/><polygon class="cls-3" points="409.12 136.99 405.94 136.97 405.94 114.09 409.12 114.14 409.12 136.99"/><polygon class="cls-3" points="414.76 137.03 411.59 137.01 411.59 114.17 414.76 114.21 414.76 137.03"/><polygon class="cls-3" points="420.39 137.08 417.22 137.05 417.22 114.24 420.39 114.28 420.39 137.08"/><polygon class="cls-3" points="426 137.12 422.84 137.09 422.84 114.31 426 114.36 426 137.12"/><polygon class="cls-3" points="431.6 137.16 428.45 137.14 428.45 114.39 431.6 114.43 431.6 137.16"/><polygon class="cls-3" points="437.18 137.2 434.04 137.18 434.04 114.46 437.18 114.5 437.18 137.2"/><polygon class="cls-3" points="442.74 137.24 439.61 137.22 439.61 114.53 442.74 114.58 442.74 137.24"/></g><g class="cls-16"><polygon class="cls-53" points="351.81 136.56 348.54 136.54 348.54 116.8 351.81 116.84 351.81 136.56"/><polygon class="cls-54" points="357.61 136.61 354.35 136.58 354.35 134.21 357.61 134.24 357.61 136.61"/><polygon class="cls-55" points="363.4 136.65 360.15 136.63 360.15 123.15 363.4 123.19 363.4 136.65"/><polygon class="cls-56" points="369.17 136.69 365.93 136.67 365.93 130.86 369.17 130.89 369.17 136.69"/><polygon class="cls-57" points="374.93 136.74 371.69 136.71 371.69 121.85 374.93 121.89 374.93 136.74"/><polygon class="cls-58" points="380.66 136.78 377.44 136.76 377.44 126.52 380.66 126.55 380.66 136.78"/><polygon class="cls-59" points="386.39 136.82 383.17 136.8 383.17 119.05 386.39 119.09 386.39 136.82"/><polygon class="cls-60" points="392.09 136.87 388.88 136.84 388.88 117.3 392.09 117.33 392.09 136.87"/><polygon class="cls-61" points="397.78 136.91 394.58 136.88 394.58 127.12 397.78 127.16 397.78 136.91"/><polygon class="cls-62" points="403.46 136.95 400.27 136.93 400.27 115.59 403.46 115.63 403.46 136.95"/><polygon class="cls-63" points="409.12 136.99 405.94 136.97 405.94 118.82 409.12 118.86 409.12 136.99"/><polygon class="cls-64" points="414.76 137.03 411.59 137.01 411.59 132.15 414.76 132.18 414.76 137.03"/><polygon class="cls-65" points="420.39 137.08 417.22 137.05 417.22 125.65 420.39 125.68 420.39 137.08"/><polygon class="cls-66" points="426 137.12 422.84 137.09 422.84 120.68 426 120.72 426 137.12"/><polygon class="cls-67" points="431.6 137.16 428.45 137.14 428.45 125.18 431.6 125.21 431.6 137.16"/><polygon class="cls-68" points="437.18 137.2 434.04 137.18 434.04 118.66 437.18 118.7 437.18 137.2"/><polygon class="cls-69" points="442.74 137.24 439.61 137.22 439.61 116.67 442.74 116.7 442.74 137.24"/></g><path class="cls-3" d="M294.41,183.6V156.27c0-4.18,3.7-7.56,8.26-7.54l147.71.66A7.51,7.51,0,0,1,458,156.7V183a7.52,7.52,0,0,1-7.65,7.32l-147.71.85C298.11,191.15,294.41,187.78,294.41,183.6Z"/><path class="cls-13" d="M309.8,158.82a3.82,3.82,0,1,1-3.8-3.51A3.65,3.65,0,0,1,309.8,158.82Z"/><path class="cls-13" d="M321.81,158.84a3.8,3.8,0,1,1-3.78-3.49A3.64,3.64,0,0,1,321.81,158.84Z"/><path class="cls-13" d="M333.75,158.86a3.77,3.77,0,1,1-3.76-3.48A3.62,3.62,0,0,1,333.75,158.86Z"/><polygon class="cls-70" points="449.68 183.7 341.25 184.15 341.25 155.41 449.68 155.73 449.68 183.7"/><g class="cls-15"><polygon class="cls-3" points="351.81 182.08 348.54 182.09 348.54 158.89 351.81 158.9 351.81 182.08"/><polygon class="cls-3" points="357.61 182.06 354.35 182.07 354.35 158.91 357.61 158.91 357.61 182.06"/><polygon class="cls-3" points="363.4 182.04 360.15 182.05 360.15 158.92 363.4 158.92 363.4 182.04"/><polygon class="cls-3" points="369.17 182.02 365.93 182.03 365.93 158.93 369.17 158.94 369.17 182.02"/><polygon class="cls-3" points="374.93 182 371.69 182.01 371.69 158.94 374.93 158.95 374.93 182"/><polygon class="cls-3" points="380.66 181.98 377.44 181.99 377.44 158.95 380.66 158.96 380.66 181.98"/><polygon class="cls-3" points="386.39 181.96 383.17 181.97 383.17 158.96 386.39 158.97 386.39 181.96"/><polygon class="cls-3" points="392.09 181.94 388.88 181.95 388.88 158.98 392.09 158.98 392.09 181.94"/><polygon class="cls-3" points="397.78 181.91 394.58 181.93 394.58 158.99 397.78 158.99 397.78 181.91"/><polygon class="cls-3" points="403.46 181.89 400.27 181.91 400.27 159 403.46 159.01 403.46 181.89"/><polygon class="cls-3" points="409.12 181.87 405.94 181.88 405.94 159.01 409.12 159.02 409.12 181.87"/><polygon class="cls-3" points="414.76 181.85 411.59 181.87 411.59 159.02 414.76 159.03 414.76 181.85"/><polygon class="cls-3" points="420.39 181.83 417.22 181.84 417.22 159.03 420.39 159.04 420.39 181.83"/><polygon class="cls-3" points="426 181.81 422.84 181.82 422.84 159.04 426 159.05 426 181.81"/><polygon class="cls-3" points="431.6 181.79 428.45 181.8 428.45 159.06 431.6 159.06 431.6 181.79"/><polygon class="cls-3" points="437.18 181.77 434.04 181.78 434.04 159.07 437.18 159.07 437.18 181.77"/><polygon class="cls-3" points="442.74 181.75 439.61 181.76 439.61 159.08 442.74 159.09 442.74 181.75"/></g><g class="cls-16"><polygon class="cls-71" points="351.81 182.08 348.54 182.09 348.54 162.35 351.81 162.36 351.81 182.08"/><polygon class="cls-72" points="357.61 182.06 354.35 182.07 354.35 179.7 357.61 179.69 357.61 182.06"/><polygon class="cls-73" points="363.4 182.04 360.15 182.05 360.15 168.58 363.4 168.58 363.4 182.04"/><polygon class="cls-74" points="369.17 182.02 365.93 182.03 365.93 176.22 369.17 176.21 369.17 182.02"/><polygon class="cls-75" points="374.93 182 371.69 182.01 371.69 167.15 374.93 167.15 374.93 182"/><polygon class="cls-76" points="380.66 181.98 377.44 181.99 377.44 171.75 380.66 171.75 380.66 181.98"/><polygon class="cls-77" points="386.39 181.96 383.17 181.97 383.17 164.22 386.39 164.22 386.39 181.96"/><polygon class="cls-78" points="392.09 181.94 388.88 181.95 388.88 162.4 392.09 162.41 392.09 181.94"/><polygon class="cls-79" points="397.78 181.91 394.58 181.93 394.58 172.17 397.78 172.16 397.78 181.91"/><polygon class="cls-80" points="403.46 181.89 400.27 181.91 400.27 160.57 403.46 160.57 403.46 181.89"/><polygon class="cls-81" points="409.12 181.87 405.94 181.88 405.94 163.74 409.12 163.74 409.12 181.87"/><polygon class="cls-82" points="414.76 181.85 411.59 181.87 411.59 177 414.76 177 414.76 181.85"/><polygon class="cls-83" points="420.39 181.83 417.22 181.84 417.22 170.44 420.39 170.44 420.39 181.83"/><polygon class="cls-84" points="426 181.81 422.84 181.82 422.84 165.41 426 165.41 426 181.81"/><polygon class="cls-85" points="431.6 181.79 428.45 181.8 428.45 169.85 431.6 169.85 431.6 181.79"/><polygon class="cls-86" points="437.18 181.77 434.04 181.78 434.04 163.27 437.18 163.27 437.18 181.77"/><polygon class="cls-87" points="442.74 181.75 439.61 181.76 439.61 161.21 442.74 161.21 442.74 181.75"/></g><path class="cls-3" d="M294.41,229.75V202.42c0-4.18,3.7-7.6,8.26-7.63l147.71-1A7.4,7.4,0,0,1,458,201V227.3a7.62,7.62,0,0,1-7.65,7.41l-147.71,2.47C298.11,237.26,294.41,233.93,294.41,229.75Z"/><path class="cls-13" d="M309.8,204.79a3.7,3.7,0,0,1-3.8,3.53,3.62,3.62,0,0,1-3.81-3.46,3.7,3.7,0,0,1,3.81-3.53A3.63,3.63,0,0,1,309.8,204.79Z"/><path class="cls-13" d="M321.81,204.69A3.68,3.68,0,0,1,318,208.2a3.6,3.6,0,0,1-3.79-3.45,3.68,3.68,0,0,1,3.79-3.51A3.6,3.6,0,0,1,321.81,204.69Z"/><path class="cls-13" d="M333.75,204.58a3.66,3.66,0,0,1-3.76,3.51,3.58,3.58,0,0,1-3.76-3.44,3.66,3.66,0,0,1,3.76-3.51A3.58,3.58,0,0,1,333.75,204.58Z"/><polygon class="cls-88" points="449.68 228.14 341.25 229.78 341.25 201.05 449.68 200.16 449.68 228.14"/><g class="cls-15"><polygon class="cls-3" points="351.81 227.59 348.54 227.64 348.54 204.44 351.81 204.42 351.81 227.59"/><polygon class="cls-3" points="357.61 227.51 354.35 227.56 354.35 204.39 357.61 204.36 357.61 227.51"/><polygon class="cls-3" points="363.4 227.43 360.15 227.47 360.15 204.34 363.4 204.31 363.4 227.43"/><polygon class="cls-3" points="369.17 227.34 365.93 227.39 365.93 204.29 369.17 204.26 369.17 227.34"/><polygon class="cls-3" points="374.93 227.26 371.69 227.3 371.69 204.24 374.93 204.21 374.93 227.26"/><polygon class="cls-3" points="380.66 227.17 377.44 227.22 377.44 204.18 380.66 204.16 380.66 227.17"/><polygon class="cls-3" points="386.39 227.09 383.17 227.13 383.17 204.13 386.39 204.1 386.39 227.09"/><polygon class="cls-3" points="392.09 227 388.88 227.05 388.88 204.08 392.09 204.05 392.09 227"/><polygon class="cls-3" points="397.78 226.92 394.58 226.97 394.58 204.03 397.78 204 397.78 226.92"/><polygon class="cls-3" points="403.46 226.84 400.27 226.88 400.27 203.98 403.46 203.95 403.46 226.84"/><polygon class="cls-3" points="409.12 226.75 405.94 226.8 405.94 203.93 409.12 203.9 409.12 226.75"/><polygon class="cls-3" points="414.76 226.67 411.59 226.72 411.59 203.88 414.76 203.85 414.76 226.67"/><polygon class="cls-3" points="420.39 226.59 417.22 226.64 417.22 203.83 420.39 203.8 420.39 226.59"/><polygon class="cls-3" points="426 226.51 422.84 226.55 422.84 203.78 426 203.75 426 226.51"/><polygon class="cls-3" points="431.6 226.43 428.45 226.47 428.45 203.72 431.6 203.7 431.6 226.43"/><polygon class="cls-3" points="437.18 226.34 434.04 226.39 434.04 203.67 437.18 203.65 437.18 226.34"/><polygon class="cls-3" points="442.74 226.26 439.61 226.31 439.61 203.62 442.74 203.59 442.74 226.26"/></g><g class="cls-16"><polygon class="cls-89" points="351.81 227.59 348.54 227.64 348.54 207.9 351.81 207.87 351.81 227.59"/><polygon class="cls-90" points="357.61 227.51 354.35 227.56 354.35 225.18 357.61 225.14 357.61 227.51"/><polygon class="cls-91" points="363.4 227.43 360.15 227.47 360.15 214 363.4 213.96 363.4 227.43"/><polygon class="cls-92" points="369.17 227.34 365.93 227.39 365.93 221.58 369.17 221.53 369.17 227.34"/><polygon class="cls-93" points="374.93 227.26 371.69 227.3 371.69 212.44 374.93 212.41 374.93 227.26"/><polygon class="cls-94" points="380.66 227.17 377.44 227.22 377.44 216.99 380.66 216.95 380.66 227.17"/><polygon class="cls-95" points="386.39 227.09 383.17 227.13 383.17 209.39 386.39 209.35 386.39 227.09"/><polygon class="cls-96" points="392.09 227 388.88 227.05 388.88 207.51 392.09 207.47 392.09 227"/><polygon class="cls-97" points="397.78 226.92 394.58 226.97 394.58 217.21 397.78 217.17 397.78 226.92"/><polygon class="cls-98" points="403.46 226.84 400.27 226.88 400.27 205.55 403.46 205.52 403.46 226.84"/><polygon class="cls-99" points="409.12 226.75 405.94 226.8 405.94 208.65 409.12 208.62 409.12 226.75"/><polygon class="cls-100" points="414.76 226.67 411.59 226.72 411.59 221.86 414.76 221.82 414.76 226.67"/><polygon class="cls-101" points="420.39 226.59 417.22 226.64 417.22 215.23 420.39 215.19 420.39 226.59"/><polygon class="cls-102" points="426 226.51 422.84 226.55 422.84 210.14 426 210.1 426 226.51"/><polygon class="cls-103" points="431.6 226.43 428.45 226.47 428.45 214.52 431.6 214.48 431.6 226.43"/><polygon class="cls-104" points="437.18 226.34 434.04 226.39 434.04 207.87 437.18 207.84 437.18 226.34"/><polygon class="cls-105" points="442.74 226.26 439.61 226.31 439.61 205.75 442.74 205.72 442.74 226.26"/></g><path class="cls-3" d="M294.41,275.9V248.57c0-4.18,3.7-7.64,8.26-7.72l147.71-2.61a7.31,7.31,0,0,1,7.65,7.14v26.26a7.72,7.72,0,0,1-7.65,7.49l-147.71,4.11C298.11,283.37,294.41,280.08,294.41,275.9Z"/><path class="cls-13" d="M309.8,250.77a3.74,3.74,0,0,1-3.8,3.57,3.56,3.56,0,0,1-3.81-3.41,3.74,3.74,0,0,1,3.81-3.57A3.57,3.57,0,0,1,309.8,250.77Z"/><path class="cls-13" d="M321.81,250.53a3.72,3.72,0,0,1-3.78,3.56,3.55,3.55,0,0,1-3.79-3.41,3.74,3.74,0,0,1,3.79-3.56A3.56,3.56,0,0,1,321.81,250.53Z"/><path class="cls-13" d="M333.75,250.29a3.71,3.71,0,0,1-3.76,3.55,3.53,3.53,0,0,1-3.76-3.4,3.71,3.71,0,0,1,3.76-3.55A3.54,3.54,0,0,1,333.75,250.29Z"/><polygon class="cls-106" points="449.68 272.57 341.25 275.41 341.25 246.68 449.68 244.59 449.68 272.57"/><g class="cls-15"><polygon class="cls-3" points="351.81 273.11 348.54 273.19 348.54 250 351.81 249.93 351.81 273.11"/><polygon class="cls-3" points="357.61 272.96 354.35 273.04 354.35 249.88 357.61 249.81 357.61 272.96"/><polygon class="cls-3" points="363.4 272.81 360.15 272.89 360.15 249.76 363.4 249.7 363.4 272.81"/><polygon class="cls-3" points="369.17 272.66 365.93 272.75 365.93 249.65 369.17 249.58 369.17 272.66"/><polygon class="cls-3" points="374.93 272.51 371.69 272.6 371.69 249.53 374.93 249.47 374.93 272.51"/><polygon class="cls-3" points="380.66 272.37 377.44 272.45 377.44 249.42 380.66 249.35 380.66 272.37"/><polygon class="cls-3" points="386.39 272.22 383.17 272.3 383.17 249.3 386.39 249.24 386.39 272.22"/><polygon class="cls-3" points="392.09 272.07 388.88 272.16 388.88 249.19 392.09 249.12 392.09 272.07"/><polygon class="cls-3" points="397.78 271.93 394.58 272.01 394.58 249.07 397.78 249.01 397.78 271.93"/><polygon class="cls-3" points="403.46 271.78 400.27 271.86 400.27 248.96 403.46 248.89 403.46 271.78"/><polygon class="cls-3" points="409.12 271.64 405.94 271.72 405.94 248.84 409.12 248.78 409.12 271.64"/><polygon class="cls-3" points="414.76 271.49 411.59 271.57 411.59 248.73 414.76 248.67 414.76 271.49"/><polygon class="cls-3" points="420.39 271.35 417.22 271.43 417.22 248.62 420.39 248.55 420.39 271.35"/><polygon class="cls-3" points="426 271.2 422.84 271.28 422.84 248.5 426 248.44 426 271.2"/><polygon class="cls-3" points="431.6 271.06 428.45 271.14 428.45 248.39 431.6 248.33 431.6 271.06"/><polygon class="cls-3" points="437.18 270.92 434.04 271 434.04 248.28 437.18 248.22 437.18 270.92"/><polygon class="cls-3" points="442.74 270.77 439.61 270.85 439.61 248.17 442.74 248.1 442.74 270.77"/></g><g class="cls-16"><polygon class="cls-107" points="351.81 273.11 348.54 273.19 348.54 253.46 351.81 253.39 351.81 273.11"/><polygon class="cls-108" points="357.61 272.96 354.35 273.04 354.35 270.67 357.61 270.59 357.61 272.96"/><polygon class="cls-109" points="363.4 272.81 360.15 272.89 360.15 259.42 363.4 259.35 363.4 272.81"/><polygon class="cls-110" points="369.17 272.66 365.93 272.75 365.93 266.94 369.17 266.86 369.17 272.66"/><polygon class="cls-111" points="374.93 272.51 371.69 272.6 371.69 257.74 374.93 257.67 374.93 272.51"/><polygon class="cls-112" points="380.66 272.37 377.44 272.45 377.44 262.22 380.66 262.14 380.66 272.37"/><polygon class="cls-113" points="386.39 272.22 383.17 272.3 383.17 254.56 386.39 254.49 386.39 272.22"/><polygon class="cls-114" points="392.09 272.07 388.88 272.16 388.88 252.61 392.09 252.54 392.09 272.07"/><polygon class="cls-115" points="397.78 271.93 394.58 272.01 394.58 262.25 397.78 262.18 397.78 271.93"/><polygon class="cls-116" points="403.46 271.78 400.27 271.86 400.27 250.53 403.46 250.46 403.46 271.78"/><polygon class="cls-117" points="409.12 271.64 405.94 271.72 405.94 253.57 409.12 253.5 409.12 271.64"/><polygon class="cls-118" points="414.76 271.49 411.59 271.57 411.59 266.71 414.76 266.64 414.76 271.49"/><polygon class="cls-119" points="420.39 271.35 417.22 271.43 417.22 260.02 420.39 259.95 420.39 271.35"/><polygon class="cls-120" points="426 271.2 422.84 271.28 422.84 254.87 426 254.8 426 271.2"/><polygon class="cls-121" points="431.6 271.06 428.45 271.14 428.45 259.19 431.6 259.11 431.6 271.06"/><polygon class="cls-122" points="437.18 270.92 434.04 271 434.04 252.48 437.18 252.41 437.18 270.92"/><polygon class="cls-123" points="442.74 270.77 439.61 270.85 439.61 250.3 442.74 250.23 442.74 270.77"/></g><path class="cls-3" d="M294.41,322.05V294.72c0-4.19,3.7-7.68,8.26-7.81l147.71-4.24a7.21,7.21,0,0,1,7.65,7.05V316a7.84,7.84,0,0,1-7.65,7.58L302.67,329.3C298.11,329.48,294.41,326.23,294.41,322.05Z"/><path class="cls-13" d="M309.8,296.75a3.81,3.81,0,0,1-3.8,3.62,3.53,3.53,0,0,1-3.81-3.38,3.79,3.79,0,0,1,3.81-3.61A3.51,3.51,0,0,1,309.8,296.75Z"/><path class="cls-13" d="M321.81,296.38A3.78,3.78,0,0,1,318,300a3.51,3.51,0,0,1-3.79-3.37A3.79,3.79,0,0,1,318,293,3.52,3.52,0,0,1,321.81,296.38Z"/><path class="cls-13" d="M333.75,296A3.77,3.77,0,0,1,330,299.6a3.5,3.5,0,0,1-3.76-3.36,3.76,3.76,0,0,1,3.76-3.59A3.5,3.5,0,0,1,333.75,296Z"/><polygon class="cls-124" points="449.68 317 341.25 321.04 341.25 292.31 449.68 289.03 449.68 317"/><g class="cls-15"><polygon class="cls-3" points="351.81 318.62 348.54 318.74 348.54 295.55 351.81 295.44 351.81 318.62"/><polygon class="cls-3" points="357.61 318.41 354.35 318.53 354.35 295.37 357.61 295.26 357.61 318.41"/><polygon class="cls-3" points="363.4 318.2 360.15 318.32 360.15 295.19 363.4 295.08 363.4 318.2"/><polygon class="cls-3" points="369.17 317.99 365.93 318.11 365.93 295.01 369.17 294.9 369.17 317.99"/><polygon class="cls-3" points="374.93 317.77 371.69 317.89 371.69 294.83 374.93 294.73 374.93 317.77"/><polygon class="cls-3" points="380.66 317.56 377.44 317.68 377.44 294.65 380.66 294.55 380.66 317.56"/><polygon class="cls-3" points="386.39 317.35 383.17 317.47 383.17 294.47 386.39 294.37 386.39 317.35"/><polygon class="cls-3" points="392.09 317.14 388.88 317.26 388.88 294.29 392.09 294.19 392.09 317.14"/><polygon class="cls-3" points="397.78 316.94 394.58 317.05 394.58 294.11 397.78 294.01 397.78 316.94"/><polygon class="cls-3" points="403.46 316.73 400.27 316.84 400.27 293.94 403.46 293.84 403.46 316.73"/><polygon class="cls-3" points="409.12 316.52 405.94 316.63 405.94 293.76 409.12 293.66 409.12 316.52"/><polygon class="cls-3" points="414.76 316.31 411.59 316.43 411.59 293.58 414.76 293.49 414.76 316.31"/><polygon class="cls-3" points="420.39 316.1 417.22 316.22 417.22 293.41 420.39 293.31 420.39 316.1"/><polygon class="cls-3" points="426 315.9 422.84 316.01 422.84 293.24 426 293.14 426 315.9"/><polygon class="cls-3" points="431.6 315.69 428.45 315.81 428.45 293.06 431.6 292.96 431.6 315.69"/><polygon class="cls-3" points="437.18 315.49 434.04 315.6 434.04 292.89 437.18 292.79 437.18 315.49"/><polygon class="cls-3" points="442.74 315.28 439.61 315.4 439.61 292.71 442.74 292.62 442.74 315.28"/></g><g class="cls-16"><polygon class="cls-125" points="351.81 318.62 348.54 318.74 348.54 299.01 351.81 298.9 351.81 318.62"/><polygon class="cls-126" points="357.61 318.41 354.35 318.53 354.35 316.16 357.61 316.04 357.61 318.41"/><polygon class="cls-127" points="363.4 318.2 360.15 318.32 360.15 304.85 363.4 304.74 363.4 318.2"/><polygon class="cls-128" points="369.17 317.99 365.93 318.11 365.93 312.3 369.17 312.18 369.17 317.99"/><polygon class="cls-129" points="374.93 317.77 371.69 317.89 371.69 303.03 374.93 302.93 374.93 317.77"/><polygon class="cls-130" points="380.66 317.56 377.44 317.68 377.44 307.45 380.66 307.34 380.66 317.56"/><polygon class="cls-131" points="386.39 317.35 383.17 317.47 383.17 299.73 386.39 299.62 386.39 317.35"/><polygon class="cls-132" points="392.09 317.14 388.88 317.26 388.88 297.72 392.09 297.61 392.09 317.14"/><polygon class="cls-133" points="397.78 316.94 394.58 317.05 394.58 307.29 397.78 307.18 397.78 316.94"/><polygon class="cls-134" points="403.46 316.73 400.27 316.84 400.27 295.51 403.46 295.4 403.46 316.73"/><polygon class="cls-135" points="409.12 316.52 405.94 316.63 405.94 298.49 409.12 298.38 409.12 316.52"/><polygon class="cls-136" points="414.76 316.31 411.59 316.43 411.59 311.57 414.76 311.46 414.76 316.31"/><polygon class="cls-137" points="420.39 316.1 417.22 316.22 417.22 304.81 420.39 304.71 420.39 316.1"/><polygon class="cls-138" points="426 315.9 422.84 316.01 422.84 299.6 426 299.5 426 315.9"/><polygon class="cls-139" points="431.6 315.69 428.45 315.81 428.45 303.85 431.6 303.75 431.6 315.69"/><polygon class="cls-140" points="437.18 315.49 434.04 315.6 434.04 297.08 437.18 296.98 437.18 315.49"/><polygon class="cls-141" points="442.74 315.28 439.61 315.4 439.61 294.84 442.74 294.75 442.74 315.28"/></g><path class="cls-3" d="M294.41,368.2V340.87c0-4.19,3.7-7.72,8.26-7.91l147.71-5.87a7.12,7.12,0,0,1,7.65,7v26.27a7.93,7.93,0,0,1-7.65,7.65l-147.71,7.38C298.11,375.59,294.41,372.38,294.41,368.2Z"/><path class="cls-13" d="M309.8,342.73a3.85,3.85,0,0,1-3.8,3.66,3.48,3.48,0,0,1-3.81-3.34A3.84,3.84,0,0,1,306,339.4,3.47,3.47,0,0,1,309.8,342.73Z"/><path class="cls-13" d="M321.81,342.23a3.83,3.83,0,0,1-3.78,3.64,3.47,3.47,0,0,1-3.79-3.33A3.84,3.84,0,0,1,318,338.9,3.46,3.46,0,0,1,321.81,342.23Z"/><path class="cls-13" d="M333.75,341.72a3.81,3.81,0,0,1-3.76,3.63,3.44,3.44,0,0,1-3.76-3.31,3.81,3.81,0,0,1,3.76-3.63A3.44,3.44,0,0,1,333.75,341.72Z"/><polygon class="cls-142" points="449.68 361.44 341.25 366.67 341.25 337.94 449.68 333.46 449.68 361.44"/><g class="cls-15"><polygon class="cls-3" points="351.81 364.14 348.54 364.3 348.54 341.1 351.81 340.96 351.81 364.14"/><polygon class="cls-3" points="357.61 363.86 354.35 364.02 354.35 340.85 357.61 340.71 357.61 363.86"/><polygon class="cls-3" points="363.4 363.58 360.15 363.74 360.15 340.61 363.4 340.47 363.4 363.58"/><polygon class="cls-3" points="369.17 363.31 365.93 363.46 365.93 340.37 369.17 340.23 369.17 363.31"/><polygon class="cls-3" points="374.93 363.03 371.69 363.19 371.69 340.12 374.93 339.99 374.93 363.03"/><polygon class="cls-3" points="380.66 362.76 377.44 362.91 377.44 339.88 380.66 339.74 380.66 362.76"/><polygon class="cls-3" points="386.39 362.49 383.17 362.64 383.17 339.64 386.39 339.5 386.39 362.49"/><polygon class="cls-3" points="392.09 362.21 388.88 362.37 388.88 339.4 392.09 339.26 392.09 362.21"/><polygon class="cls-3" points="397.78 361.94 394.58 362.1 394.58 339.16 397.78 339.02 397.78 361.94"/><polygon class="cls-3" points="403.46 361.67 400.27 361.82 400.27 338.92 403.46 338.78 403.46 361.67"/><polygon class="cls-3" points="409.12 361.4 405.94 361.55 405.94 338.68 409.12 338.54 409.12 361.4"/><polygon class="cls-3" points="414.76 361.13 411.59 361.28 411.59 338.44 414.76 338.31 414.76 361.13"/><polygon class="cls-3" points="420.39 360.86 417.22 361.01 417.22 338.2 420.39 338.07 420.39 360.86"/><polygon class="cls-3" points="426 360.59 422.84 360.74 422.84 337.96 426 337.83 426 360.59"/><polygon class="cls-3" points="431.6 360.33 428.45 360.48 428.45 337.73 431.6 337.6 431.6 360.33"/><polygon class="cls-3" points="437.18 360.06 434.04 360.21 434.04 337.49 437.18 337.36 437.18 360.06"/><polygon class="cls-3" points="442.74 359.79 439.61 359.94 439.61 337.26 442.74 337.13 442.74 359.79"/></g><g class="cls-16"><polygon class="cls-143" points="351.81 364.14 348.54 364.3 348.54 344.56 351.81 344.42 351.81 364.14"/><polygon class="cls-144" points="357.61 363.86 354.35 364.02 354.35 361.64 357.61 361.49 357.61 363.86"/><polygon class="cls-145" points="363.4 363.58 360.15 363.74 360.15 350.27 363.4 350.12 363.4 363.58"/><polygon class="cls-146" points="369.17 363.31 365.93 363.46 365.93 357.65 369.17 357.5 369.17 363.31"/><polygon class="cls-147" points="374.93 363.03 371.69 363.19 371.69 348.33 374.93 348.19 374.93 363.03"/><polygon class="cls-148" points="380.66 362.76 377.44 362.91 377.44 352.68 380.66 352.54 380.66 362.76"/><polygon class="cls-149" points="386.39 362.49 383.17 362.64 383.17 344.89 386.39 344.75 386.39 362.49"/><polygon class="cls-150" points="392.09 362.21 388.88 362.37 388.88 342.82 392.09 342.68 392.09 362.21"/><polygon class="cls-151" points="397.78 361.94 394.58 362.1 394.58 352.33 397.78 352.19 397.78 361.94"/><polygon class="cls-152" points="403.46 361.67 400.27 361.82 400.27 340.49 403.46 340.35 403.46 361.67"/><polygon class="cls-153" points="409.12 361.4 405.94 361.55 405.94 343.4 409.12 343.27 409.12 361.4"/><polygon class="cls-154" points="414.76 361.13 411.59 361.28 411.59 356.42 414.76 356.27 414.76 361.13"/><polygon class="cls-155" points="420.39 360.86 417.22 361.01 417.22 349.61 420.39 349.46 420.39 360.86"/><polygon class="cls-156" points="426 360.59 422.84 360.74 422.84 344.33 426 344.19 426 360.59"/><polygon class="cls-157" points="431.6 360.33 428.45 360.48 428.45 348.52 431.6 348.38 431.6 360.33"/><polygon class="cls-158" points="437.18 360.06 434.04 360.21 434.04 341.69 437.18 341.56 437.18 360.06"/><polygon class="cls-159" points="442.74 359.79 439.61 359.94 439.61 339.39 442.74 339.25 442.74 359.79"/></g><path class="cls-160" d="M442.13,344.34c-23.94-30.8-54.77-29.92-63.53-58.84-9.36-30.95,21.19-44.42,13.49-78-7.82-34.15-45.39-34.42-50.84-69-4.43-28,19-36.1,11.38-61.25-7.85-25.74-36-29.28-41.57-54.48A40.92,40.92,0,0,1,312.61.72L294.82,0c-6.42-.26-11.64,4.3-11.64,10.19V396.45c0,5.89,5.22,10.36,11.64,10l162.84-9.32a11.77,11.77,0,0,0,4.61-1.27C459.28,371.76,450.85,355.55,442.13,344.34Z"/><path class="cls-161" d="M610.73,517.44,34,512.37v15c0,4.07,2.51,7.53,5.92,8.15L203,565.05a22.15,22.15,0,0,0,5.86.28l395.61-33.67c3.54-.3,6.27-3.78,6.27-8Z"/><path class="cls-162" d="M401.43,493.12,40,520.56c-6.47.49-11.73-4.72-11.73-11.65V231.34c0-6.93,5.26-12.55,11.73-12.55H401.43c5.33,0,9.64,5.08,9.64,11.34V481.05C411.07,487.32,406.76,492.72,401.43,493.12Z"/><path class="cls-163" d="M407.2,493.12,45.71,520.56c-6.47.49-11.72-4.72-11.72-11.65V231.34c0-6.93,5.25-12.55,11.72-12.55H407.2c5.33,0,9.63,5.08,9.63,11.34V481.05C416.83,487.32,412.53,492.72,407.2,493.12Z"/><path class="cls-164" d="M395.94,475.43,59.25,499.27c-5.26.37-9.54-3.91-9.54-9.57v-243c0-5.66,4.28-10.26,9.54-10.28l336.69-1.5c4.39,0,7.95,4.14,7.95,9.29V465.54C403.89,470.7,400.33,475.12,395.94,475.43Z"/><path class="cls-3" d="M239.22,226.39a4.19,4.19,0,1,1-4.16-4.67A4.45,4.45,0,0,1,239.22,226.39Z"/><path class="cls-165" d="M320.1,417c-27.86-16.11-49.78,4.3-70.92-15.84-12.82-12.2-6.53-21.31-22.3-39.55C209.4,341.41,198,348.2,180.47,330c-22.2-23-11.1-40.89-30.22-57.39-23.2-20-48.23-1.5-70.31-20.7-9.53-8.28-14.75-20.33-17.48-33.14H40.85A7.13,7.13,0,0,0,34,226.16V513.88c0,4.07,3.07,7.13,6.86,6.84l368.41-28.09a5.87,5.87,0,0,0,4.44-2.91c-27-1.06-43.54-10.77-54.13-20.81C338.85,449.28,342.45,429.91,320.1,417Z"/><path class="cls-166" d="M421.6,491.88,34,520.76l169,30.61a22.57,22.57,0,0,0,5.86.28l401.88-34.21-183-25.36A29,29,0,0,0,421.6,491.88Z"/><polygon class="cls-167" points="90.55 521.49 413.25 497.08 513.12 510.82 193.2 536.9 90.55 521.49"/><g class="cls-168"><polygon class="cls-3" points="118.4 255.49 81.33 255.62 81.33 243.62 118.4 243.62 118.4 255.49"/><polygon class="cls-3" points="312.65 254.81 141.95 255.41 141.95 243.62 312.65 243.62 312.65 254.81"/><polygon class="cls-3" points="177.74 275.2 141.95 275.54 141.95 263.75 177.74 263.54 177.74 275.2"/><polygon class="cls-3" points="365.45 273.43 200.47 274.99 200.47 263.4 365.45 262.42 365.45 273.43"/><polygon class="cls-3" points="177.74 295.12 141.95 295.67 141.95 283.89 177.74 283.46 177.74 295.12"/><polygon class="cls-3" points="365.45 292.23 200.47 294.77 200.47 283.19 365.45 281.22 365.45 292.23"/><polygon class="cls-3" points="118.4 316.31 81.33 317.1 81.33 305.1 118.4 304.44 118.4 316.31"/><polygon class="cls-3" points="312.65 312.15 141.95 315.81 141.95 304.02 312.65 300.96 312.65 312.15"/><polygon class="cls-3" points="177.74 334.96 141.95 335.94 141.95 324.15 177.74 323.3 177.74 334.96"/><polygon class="cls-3" points="365.45 329.83 200.47 334.34 200.47 322.75 365.45 318.82 365.45 329.83"/><polygon class="cls-3" points="177.74 354.88 141.95 356.07 141.95 344.28 177.74 343.22 177.74 354.88"/><polygon class="cls-3" points="365.45 348.63 200.47 354.12 200.47 342.54 365.45 337.62 365.45 348.63"/><polygon class="cls-3" points="177.74 374.8 141.95 376.2 141.95 364.42 177.74 363.14 177.74 374.8"/><polygon class="cls-3" points="365.45 367.43 200.47 373.9 200.47 362.32 365.45 356.42 365.45 367.43"/><polygon class="cls-3" points="235.57 392.1 201.02 393.66 201.02 382.08 235.57 380.64 235.57 392.1"/><polygon class="cls-3" points="390.65 385.08 257.53 391.11 257.53 379.73 390.65 374.17 390.65 385.08"/><polygon class="cls-3" points="118.4 417.67 81.33 419.57 81.33 407.57 118.4 405.81 118.4 417.67"/><polygon class="cls-3" points="312.65 407.73 141.95 416.47 141.95 404.68 312.65 396.54 312.65 407.73"/><polygon class="cls-3" points="177.74 434.56 141.95 436.6 141.95 424.81 177.74 422.89 177.74 434.56"/><polygon class="cls-3" points="365.45 423.82 200.47 433.26 200.47 421.67 365.45 412.82 365.45 423.82"/><polygon class="cls-3" points="177.74 454.48 141.95 456.73 141.95 444.95 177.74 442.81 177.74 454.48"/><polygon class="cls-3" points="365.45 442.63 200.47 453.04 200.47 441.46 365.45 431.62 365.45 442.63"/><polygon class="cls-3" points="118.4 478.49 81.33 481.06 81.33 469.06 118.4 466.63 118.4 478.49"/><polygon class="cls-3" points="312.65 465.07 141.95 476.87 141.95 465.08 312.65 453.88 312.65 465.07"/></g><path class="cls-169" d="M443.88,428.38c11.39,5.78,25.7.47,32-11.86s2.1-27-9.29-32.79c-.59-.3-1.19-.56-1.79-.8a145.31,145.31,0,0,0,4.78-20.57c.65,0,1.31,0,2-.08,13-1.15,23.31-13.09,23-26.66s-11-23.63-24-22.48c-.68.07-1.35.17-2,.29A133.73,133.73,0,0,0,463,293.78c.59-.35,1.19-.71,1.77-1.12,11.11-7.79,14.67-23.16,7.94-34.33s-21.2-13.91-32.32-6.13c-.57.4-1.1.83-1.63,1.27A117.21,117.21,0,0,0,424.3,240c.37-.61.73-1.21,1.05-1.85,6.26-12.33,14.44-25.8,3-31.4-26.54-13-37.94-1.87-44.2,10.46-.32.64-.6,1.29-.87,1.94a116.7,116.7,0,0,0-19.37-3.7c0-.69.07-1.37.06-2.07-.27-13.57,3.75-20.91-9.29-21.16-28.44-.56-38,11.79-37.76,25.36,0,.71.07,1.4.14,2.09a132,132,0,0,0-19.14,7.1c-.3-.6-.61-1.2-1-1.79-6.73-11.17-21.2-13.91-32.31-6.13S249.94,242,256.67,253.2a18.84,18.84,0,0,0,1.11,1.64,143.78,143.78,0,0,0-13.8,16c-.55-.34-1.11-.68-1.7-1-11.38-5.78-25.69-.47-31.95,11.86s-2.1,27,9.28,32.79c.59.3,1.2.55,1.8.79a144.08,144.08,0,0,0-4.78,20.58c-.65,0-1.31,0-2,.07-13,1.16-23.31,13.1-23,26.67s11,23.63,24,22.47c.68-.06,1.35-.17,2-.28a133.73,133.73,0,0,0,5.56,19.65c-.6.35-1.19.71-1.77,1.11-11.12,7.79-14.67,23.16-7.94,34.33s29,16.37,40.14,8.58c.56-.4-6.72-3.28-6.19-3.71a117.21,117.21,0,0,0,14.42,13.45c-.37.6-.73,1.21-1.05,1.85-6.26,12.33-2.11,27,9.28,32.79s25.7.48,32-11.85c.32-.64.6-1.29.87-1.94a117.73,117.73,0,0,0,19.37,3.7c0,.68-.07,1.37-.06,2.06.27,13.57,11,23.63,24,22.48s23.3-13.1,23-26.67c0-.71-.08-1.4-.15-2.09a131.77,131.77,0,0,0,19.15-7.11c.3.61.6,1.21,1,1.79,6.73,11.18,21.2,13.92,32.31,6.13s14.67-23.15,7.94-34.33c-.35-.57-.72-1.1-1.11-1.63a144.75,144.75,0,0,0,13.79-16C442.74,427.74,443.29,428.08,443.88,428.38Zm-141.95,1.8c-41.35-21-56.44-74.3-33.71-119.07s74.67-64,116-43.05,56.44,74.3,33.71,119.07S343.27,451.17,301.93,430.18Z"/><path class="cls-170" d="M471.51,362.28c13-1.15,23.31-13.09,23-26.66s-11-23.63-24-22.48c-.68.07-1.35.17-2,.29A133.73,133.73,0,0,0,463,293.78c.59-.35,1.19-.71,1.77-1.12,11.11-7.79,24.87-26.6,17-37-14.88-19.79-30.28-11.22-41.4-3.44-.57.4-1.1.83-1.63,1.27A118.06,118.06,0,0,0,424.3,240c.37-.6.73-1.2,1.05-1.84a25.86,25.86,0,0,0,1.46-20.4q-16.11,28.33-31.73,57c33,24.17,43.48,71.8,22.87,112.41-17.47,34.41-52.2,53.73-86.12,51.31-1.51,3.92-3,7.87-4.61,11.75-4.4,10.55-9.39,20.87-14.39,31.19q4.71.89,9.47,1.39c0,.68-.07,1.37-.06,2.06.27,13.57,8.51,25.1,32.06,23.85,13-.69,15.26-14.47,15-28,0-.71-.08-1.4-.15-2.09a131.77,131.77,0,0,0,19.15-7.11c.3.61.6,1.21,1,1.79,6.73,11.18,30.08,15.92,41.2,8.14s5.78-25.16-.95-36.34c-.35-.57-.72-1.1-1.11-1.63a145.67,145.67,0,0,0,13.79-16c.56.34,1.11.68,1.7,1,11.39,5.78,25.7.47,32-11.86s2.1-27-9.29-32.79c-.59-.3-1.19-.56-1.79-.8a145.31,145.31,0,0,0,4.78-20.57C470.19,362.35,470.85,362.34,471.51,362.28Z"/><path class="cls-171" d="M456.13,429.77c11.39,5.78,25.7.47,32-11.86s2.1-27-9.29-32.79c-.59-.3-1.19-.55-1.79-.79a145.44,145.44,0,0,0,4.78-20.58c.65,0,1.3,0,2-.07,13-1.16,23.3-13.1,23-26.67s-11-23.63-24-22.47c-.68.06-1.35.17-2,.28a132.54,132.54,0,0,0-5.57-19.65c.6-.35,1.2-.71,1.78-1.12,11.11-7.78,14.67-23.15,7.93-34.33s-21.2-13.91-32.31-6.12c-.57.4-1.11.83-1.64,1.26a117.12,117.12,0,0,0-14.41-13.45c.37-.6.72-1.21,1.05-1.85,6.26-12.33,2.1-27-9.29-32.79s-25.69-.48-31.95,11.85c-.32.64-.6,1.29-.87,1.94a117.73,117.73,0,0,0-19.37-3.7c0-.68.07-1.37.06-2.07-.28-13.56-11-23.63-24-22.47s-23.3,13.1-23,26.67c0,.71.07,1.4.14,2.09a132.2,132.2,0,0,0-19.15,7.11c-.29-.61-.6-1.21-.95-1.8-6.73-11.17-21.2-13.91-32.32-6.12s-14.66,23.15-7.93,34.33c.34.57.72,1.1,1.1,1.63a144.75,144.75,0,0,0-13.79,16c-.55-.34-1.11-.68-1.7-1-11.39-5.78-25.69-.47-31.95,11.86s-2.11,27,9.28,32.79c.59.3,1.19.55,1.8.8a143.63,143.63,0,0,0-4.78,20.57c-.66,0-1.31,0-2,.08-13,1.15-23.3,13.09-23,26.66s11,23.63,24,22.47c.68-.06,1.34-.16,2-.28a131.31,131.31,0,0,0,5.56,19.65c-.6.35-1.19.71-1.77,1.12-11.12,7.78-14.67,23.16-7.94,34.33s21.2,13.91,32.31,6.13c.57-.4,1.11-.83,1.64-1.27a117.84,117.84,0,0,0,14.41,13.45c-.36.6-.72,1.21-1,1.85-6.26,12.33-2.11,27,9.28,32.8s25.69.47,31.95-11.86c.33-.64.61-1.29.88-1.94a116.5,116.5,0,0,0,19.37,3.7c0,.69-.08,1.37-.06,2.07.27,13.57,11,23.63,24,22.47s23.31-13.1,23-26.67c0-.71-.08-1.4-.15-2.09a132.89,132.89,0,0,0,19.15-7.1c.3.6.6,1.2.95,1.79,6.74,11.17,21.2,13.91,32.32,6.13s14.67-23.16,7.94-34.33c-.35-.58-.73-1.11-1.11-1.64a144.75,144.75,0,0,0,13.79-16C455,429.13,455.54,429.47,456.13,429.77Zm-141.95,1.8c-41.35-21-56.44-74.3-33.71-119.07s74.67-64,116-43.05,56.43,74.3,33.7,119.07S355.52,452.56,314.18,431.57Z"/><path class="cls-172" d="M403.65,228.94s-2.36-.33-1.63-4.84c.58-3.53.14-4.72-.69-4.09s-.95,2.66-.95,2.66a16.61,16.61,0,0,1-4.3-6c-1.25-3.4-2.06-.54-2.33,1.16s1.79,7,3,8,2.86,5.32,2.86,5.32Z"/><path class="cls-173" d="M497.48,504.9s-15.65,7.1-15.9,8.24,10.06-.38,14.27-.22,7.68-1.08,7.29-2.86-1.85-6.27-1.85-6.27Z"/><path class="cls-174" d="M496.91,499.13l.95,7s2.47.88,4.14-.16l.71-7.73Z"/><path class="cls-175" d="M570.57,499.29l1.82,2.93a3.49,3.49,0,0,1,.42,2.73c-.64,2.43-1.91,7.16-2.46,8.39-.76,1.68-10.88,2.68-10.88,2.68s-.9-1.27,1.2-2.8,3.45-1.78,4.19-4,1.24-8.67,1.24-8.67Z"/><path class="cls-176" d="M563,491.87c.66.53,3.91,10.4,3.91,10.4s1.06,1.35,3.06-.64.9-.89.9-.89L570.5,491Z"/><path class="cls-177" d="M488.3,357.63c-.83,21-.86,43.83.35,68.22,1.36,27.46,4.09,52.83,7.54,75.84,1.28,0,2.63.05,4,0,.95,0,1.87-.07,2.76-.14A176.18,176.18,0,0,0,508.78,483a179.37,179.37,0,0,0,4.05-21.71c3-23.79-.52-25.87,1.93-43.5,2.16-15.62,5.24-16.23,8.85-38.41,3.93-24.05,1-27.66-.41-29C517.15,344.89,503,348.67,488.3,357.63Z"/><path class="cls-178" d="M523.2,350.44c-5.77-5.29-19-2.09-32.88,6,16,17.31,17.77,28.54,15.85,35.82-2.17,8.23-8.77,10.6-8.74,19.61,0,11.06,10,14,9.8,25.7-.14,7.74-4.53,7.66-5.57,17.22-1.22,11.31,4.51,15.21,2.65,23.58-.79,3.6-3.07,8.31-9.57,13.15.47,3.44.95,6.84,1.45,10.18,1.28,0,2.63.05,4,0,.95,0,1.87-.07,2.76-.14A176.18,176.18,0,0,0,508.78,483a179.37,179.37,0,0,0,4.05-21.71c3-23.79-.52-25.87,1.93-43.5,2.16-15.62,5.24-16.23,8.85-38.41C527.53,355.35,524.62,351.75,523.2,350.44Z"/><path class="cls-179" d="M498.22,357.28a471.78,471.78,0,0,1,42,75.36,470.16,470.16,0,0,1,22.7,63.06,8.49,8.49,0,0,0,4.62.71,8.58,8.58,0,0,0,5.23-2.82,135.81,135.81,0,0,0,1.2-33.5,115.7,115.7,0,0,0-4.71-25.18c-3.81-12.28-6.43-13-11.4-26-5.15-13.48-3.9-16.85-8.84-33.73a222.09,222.09,0,0,0-11-29.59Z"/><path class="cls-180" d="M493.06,243.16a36.26,36.26,0,0,0,2.42,10.28c1.78,4,10.59,6.2,12.39,7s-3.21,3.61-8.3,4.28-19.71,0-22.4-1.89,2.06-1.85,5.66-3.3,5.49-8.65,4.75-11.86S493.06,243.16,493.06,243.16Z"/><path class="cls-181" d="M485.71,238.64c-2.68-3.55-1.54-10.54.85-11.44.68-.25,1.15.11,8,5.69,3.39,2.78,5,4.2,5.13,6.11a5.75,5.75,0,0,1-1.23,3.54,15,15,0,0,1-2.42,2.15c-1.22.94-1.15.92-1.51,1.19a20.09,20.09,0,0,1-5.22,2.65,14.1,14.1,0,0,0,.06-2.41,12.58,12.58,0,0,0-.59-3.07C488,240.8,486.58,239.8,485.71,238.64Z"/><path class="cls-182" d="M492.58,247.79a7.54,7.54,0,0,1-7.38.88c-3.62-1.58-1.14-10.11,1.87-11a5,5,0,0,1,3.84.85c.68.49.82.9,1.95,1.68s1.42.71,1.66,1.13.3,1.54-1.31,3.71a2.16,2.16,0,0,1,2.42.07,1.39,1.39,0,0,1,.31.66C496.12,246.9,494.81,247.8,492.58,247.79Z"/><path class="cls-164" d="M554.33,364.69c-5.76,5.22-15.72,5.64-17.9,5.73-10.24.44-11.7-4-21.84-3.58s-12.84,5.08-20,3.22c-1.28-.32-6.26-1.77-11.56-8.7-15-19.62-2.47-41.21-17.44-69-2.25-4.19-4.24-7.87-8.23-11.82-12.92-12.77-25.24-7-41.52-17.21C402.45,255,393.49,238,397.36,230.42c1.76-3.46,3.28-3,5.64-3.28,4,6.73,13.78,14.92,25.06,19.7,10.71,4.53,19,2.36,35.35,2.59,10,.14,27.2.38,40.83,5.26,34.09,12.21,46.71,53.71,50.45,66C558,331.39,565.09,355,554.33,364.69Z"/><path class="cls-183" d="M526.41,355.27c3.71-4.8-15.46-18-12.89-33.41,2.17-13,17.55-14.27,21.48-26.25,1.7-5.18,1.38-12.71-5.85-23.93,15.85,17.19,22.91,40.34,25.54,49,3.26,10.72,10.4,34.28-.36,44-5.76,5.22-15.72,5.64-17.9,5.73-10.24.44-11.7-4-21.84-3.58s-12.84,5.08-20,3.22c-1.28-.32-6.26-1.77-11.56-8.7l-.23-.31a30.9,30.9,0,0,1,14.53-8.17C511.4,349.73,523.4,359.15,526.41,355.27Z"/><path class="cls-184" d="M580.09,191c5.14,1.77,10.85-1.3,12.77-6.86s-.7-11.5-5.83-13.27c-.27-.09-.53-.16-.8-.23a61.76,61.76,0,0,0,.81-8.94,7.85,7.85,0,0,0,.82-.15A11.15,11.15,0,0,0,596,149a9.45,9.45,0,0,0-11.43-8.06c-.29.07-.56.15-.83.24a57,57,0,0,0-3.5-8q.36-.27.69-.57a11.15,11.15,0,0,0,1.33-14.93,9.44,9.44,0,0,0-14-.69c-.21.2-.41.42-.61.63a48.81,48.81,0,0,0-6.86-4.82,8.6,8.6,0,0,0,.33-.84c1.92-5.56,4.58-11.71-.58-13.4-11.94-3.91-16.09,1.43-18,7-.1.29-.18.58-.25.87a50.14,50.14,0,0,0-8.38-.43q0-.44-.09-.87c-.91-5.7.36-9-5.15-8.37-12,1.43-15.33,7.19-14.42,12.89.05.3.11.58.18.87a57,57,0,0,0-7.65,4.11c-.16-.24-.32-.47-.5-.7a9.44,9.44,0,0,0-14-.69A11.14,11.14,0,0,0,491,128.18c.18.22.37.42.56.62a61.66,61.66,0,0,0-4.87,7.55,7.35,7.35,0,0,0-.77-.32c-5.14-1.77-10.85,1.3-12.77,6.86s.7,11.5,5.83,13.27c.27.09.54.17.8.23a62,62,0,0,0-.81,9c-.27,0-.55.08-.82.14A11.14,11.14,0,0,0,470,178.06a9.43,9.43,0,0,0,11.43,8.06,7.71,7.71,0,0,0,.82-.24,56.53,56.53,0,0,0,3.5,8c-.23.19-.46.37-.68.58a11.13,11.13,0,0,0-1.34,14.92c3.49,4.31,13.18,5.2,17.4,1.27.22-.21-3-1-2.82-1.21a51,51,0,0,0,6.86,4.83q-.18.41-.33.84c-1.92,5.56.69,11.5,5.82,13.27s10.85-1.31,12.77-6.87a8.47,8.47,0,0,0,.25-.86,51.28,51.28,0,0,0,8.38.42c0,.29,0,.58.09.88a9.43,9.43,0,0,0,11.43,8,11.12,11.12,0,0,0,8.14-12.57,7.88,7.88,0,0,0-.18-.87,56.47,56.47,0,0,0,7.65-4.12,7,7,0,0,0,.51.7,9.43,9.43,0,0,0,14,.69A11.13,11.13,0,0,0,575,198.86c-.18-.22-.37-.42-.56-.62a63.22,63.22,0,0,0,4.87-7.55C579.57,190.8,579.83,190.91,580.09,191Zm-59.68,9.06c-18.64-6.42-28.11-28-21.16-48.17S527,120.55,545.6,127s28.11,28,21.16,48.18S539.05,206.49,520.41,200.06Z"/><path class="cls-185" d="M587.86,161.55A11.15,11.15,0,0,0,596,149a9.45,9.45,0,0,0-11.43-8.06c-.29.07-.56.15-.83.24a57,57,0,0,0-3.5-8q.36-.27.69-.57c4.22-3.93,8.91-12.66,5-16.59-7.42-7.46-13.41-3-17.64,1-.21.2-.41.42-.61.63a48.81,48.81,0,0,0-6.86-4.82,8.6,8.6,0,0,0,.33-.84,11,11,0,0,0-.57-8.68q-5.13,12.89-10,25.84c15.31,8.25,22.52,27.7,16.21,46-5.35,15.51-18.84,25.68-33.27,26.64-.41,1.75-.8,3.49-1.26,5.22-1.23,4.7-2.73,9.34-4.23,14,1.36.06,2.71.08,4.07,0q0,.43.09.87c.91,5.7,5.06,10.08,14.9,8.17,5.44-1.05,5.58-7,4.67-12.68a8.57,8.57,0,0,0-.18-.88,55.31,55.31,0,0,0,7.65-4.11,7,7,0,0,0,.51.7c3.48,4.31,13.6,4.95,17.82,1s1-10.94-2.52-15.25c-.18-.22-.37-.42-.56-.62a63.22,63.22,0,0,0,4.87-7.55c.25.11.51.22.77.31,5.14,1.77,10.85-1.3,12.77-6.86s-.7-11.5-5.83-13.27c-.27-.09-.53-.16-.8-.23a61.76,61.76,0,0,0,.81-8.94A7.85,7.85,0,0,0,587.86,161.55Z"/><path class="cls-164" d="M593.11,161.42a11.13,11.13,0,0,0,8.13-12.57c-.9-5.7-6-9.32-11.43-8.06a5.91,5.91,0,0,0-.82.24,57.79,57.79,0,0,0-3.49-8c.23-.18.45-.37.68-.57a11.15,11.15,0,0,0,1.33-14.93,9.43,9.43,0,0,0-14-.69c-.22.2-.42.42-.62.63a49.65,49.65,0,0,0-6.86-4.82,8.6,8.6,0,0,0,.33-.84c1.92-5.56-.69-11.5-5.82-13.27s-10.85,1.3-12.77,6.86c-.09.29-.18.58-.25.87a50.13,50.13,0,0,0-8.37-.43c0-.28-.06-.58-.1-.87-.91-5.7-6-9.31-11.43-8.06a11.13,11.13,0,0,0-8.14,12.57c.05.31.11.6.18.88a56.4,56.4,0,0,0-7.65,4.11,8,8,0,0,0-.5-.69,9.15,9.15,0,0,0-8.65-3.33,10,10,0,0,0-5.32,2.63,11.16,11.16,0,0,0-1.34,14.93c.18.21.37.42.57.62a60.56,60.56,0,0,0-4.88,7.55,7.35,7.35,0,0,0-.77-.32c-5.14-1.77-10.85,1.31-12.77,6.86s.69,11.51,5.83,13.27a7.32,7.32,0,0,0,.8.23,60.61,60.61,0,0,0-.8,9c-.28,0-.56.08-.83.14a11.14,11.14,0,0,0-8.14,12.58A9.42,9.42,0,0,0,486.67,186c.29-.07.56-.15.83-.24a56.53,56.53,0,0,0,3.5,7.95c-.24.19-.46.38-.68.58A11.13,11.13,0,0,0,489,209.2c3.49,4.32,9.74,4.62,14,.69.21-.2.42-.41.61-.63a50.32,50.32,0,0,0,6.86,4.83c-.12.27-.23.55-.34.84-1.91,5.56.7,11.5,5.84,13.27s10.84-1.31,12.76-6.87a8.47,8.47,0,0,0,.25-.86,50.19,50.19,0,0,0,8.38.42q0,.44.09.87a9.44,9.44,0,0,0,11.43,8.07A11.15,11.15,0,0,0,557,217.25a7.88,7.88,0,0,0-.18-.87,57.07,57.07,0,0,0,7.65-4.12,8.3,8.3,0,0,0,.51.7c3.48,4.31,9.74,4.62,14,.69a11.37,11.37,0,0,0,3-11.83,10.07,10.07,0,0,0-1.7-3.09c-.18-.22-.37-.43-.56-.62a63.22,63.22,0,0,0,4.87-7.55c.25.11.5.22.77.32,5.14,1.76,10.86-1.31,12.77-6.87s-.7-11.5-5.83-13.27c-.27-.09-.53-.16-.8-.23a61.88,61.88,0,0,0,.81-8.94C592.55,161.53,592.83,161.49,593.11,161.42ZM572,175c-4.72,13.69-15.79,23.23-28.23,25.94a33.5,33.5,0,0,1-18.12-1c-18.64-6.43-28.11-28-21.16-48.18a40.37,40.37,0,0,1,16.18-20.89,34.57,34.57,0,0,1,30.17-4C569.48,133.26,579,154.83,572,175Z"/><path class="cls-186" d="M578.92,213.65c-4.23,3.93-10.49,3.62-14-.69a8.3,8.3,0,0,1-.51-.7,57.07,57.07,0,0,1-7.65,4.12,7.88,7.88,0,0,1,.18.87,11.15,11.15,0,0,1-8.14,12.58,9.44,9.44,0,0,1-11.43-8.07q-.06-.44-.09-.87a50.19,50.19,0,0,1-8.38-.42,8.47,8.47,0,0,1-.25.86c-1.92,5.56-7.63,8.63-12.76,6.87s-7.75-7.71-5.84-13.27c.11-.29.22-.57.34-.84a50.32,50.32,0,0,1-6.86-4.83c-.19.22-.4.43-.61.63-4.23,3.93-10.48,3.63-14-.69a11.13,11.13,0,0,1,1.34-14.92c.22-.2.44-.39.68-.58a56.53,56.53,0,0,1-3.5-7.95c-.27.09-.54.17-.83.24a9.42,9.42,0,0,1-11.42-8.06,11.14,11.14,0,0,1,8.14-12.58c.27-.06.55-.1.83-.14a60.61,60.61,0,0,1,.8-9,7.32,7.32,0,0,1-.8-.23c-5.14-1.76-7.75-7.71-5.83-13.27s7.63-8.63,12.77-6.86a7.35,7.35,0,0,1,.77.32,60.56,60.56,0,0,1,4.88-7.55c-.2-.2-.39-.41-.57-.62a11.16,11.16,0,0,1,1.34-14.93,10,10,0,0,1,5.32-2.63c7.34,5.07,14.45,11.86,17.77,20.38a40.37,40.37,0,0,0-16.18,20.89c-6.95,20.19,2.52,41.75,21.16,48.18a33.5,33.5,0,0,0,18.12,1c9.16,5.24,21.63,6.48,38.18.86A11.37,11.37,0,0,1,578.92,213.65Z"/></g></g></g></g></svg>