<?xml version="1.0" encoding="utf-8"?>
<!-- Generator: Adobe Illustrator 25.2.0, SVG Export Plug-In . SVG Version: 6.00 Build 0)  -->
<svg version="1.1" id="图层_1" xmlns="http://www.w3.org/2000/svg" xmlns:xlink="http://www.w3.org/1999/xlink" x="0px" y="0px"
	 viewBox="0 0 320 52" style="enable-background:new 0 0 320 52;" xml:space="preserve">
<style type="text/css">
	.st0{fill:#FFFFFF;}
</style>
<g>
	<path class="st0" d="M0,3.3h11.4v38.1h18.4v9.6H0V3.3z"/>
	<path class="st0" d="M33.1,27c0-15.7,8.8-24.5,21.7-24.5S76.5,11.4,76.5,27c0,15.7-8.8,25-21.7,25S33.1,42.6,33.1,27z M64.9,27
		c0-9.2-3.9-14.7-10.1-14.7S44.7,17.7,44.7,27c0,9.3,3.8,15.2,10.1,15.2S64.9,36.3,64.9,27z"/>
	<path class="st0" d="M83.1,27.5c0-15.9,10.6-25,23.3-25c6.9,0,11.9,3,15.1,6.2l-6,7.3c-2.3-2.1-4.8-3.7-8.7-3.7
		c-7,0-12,5.5-12,14.8c0,9.5,4.2,15,13,15c1.7,0,3.5-0.5,4.5-1.2v-7.7h-7.5v-9.4h17.6v22.3c-3.3,3.2-9.2,5.8-15.8,5.8
		C93.4,52,83.1,43.7,83.1,27.5z"/>
	<path class="st0" d="M129.8,27c0-15.7,8.8-24.5,21.7-24.5s21.7,8.9,21.7,24.5c0,15.7-8.8,25-21.7,25S129.8,42.6,129.8,27z
		 M161.6,27c0-9.2-3.9-14.7-10.1-14.7c-6.2,0-10.1,5.5-10.1,14.7c0,9.3,3.8,15.2,10.1,15.2C157.7,42.1,161.6,36.3,161.6,27z"/>
	<path class="st0" d="M197.1,0h5.2v14.2l-0.2,7.3c3.3-3.2,6.8-5.9,11.5-5.9c7.2,0,10.5,4.7,10.5,13.5v22h-5.2V29.7
		c0-6.7-2-9.6-6.8-9.6c-3.6,0-6.2,1.9-9.8,5.6v25.4h-5.2V0z"/>
	<path class="st0" d="M232.7,33.8c0-11.3,7.4-18.3,15.3-18.3c8.6,0,13.6,6.2,13.6,16.2c0,1.2-0.1,2.3-0.3,3.1h-23.5
		c0.3,7.7,4.9,12.8,11.8,12.8c3.4,0,6.2-1.1,8.7-2.8l1.9,3.5c-3,1.9-6.5,3.5-11.3,3.5C240,51.9,232.7,45.2,232.7,33.8z M257.1,31.1
		c0-7.4-3.3-11.4-8.9-11.4c-5.1,0-9.6,4.2-10.3,11.4H257.1z"/>
	<path class="st0" d="M270.4,16.4h4.2l0.5,6.4h0.2c2.4-4.4,5.9-7.3,9.7-7.3c1.5,0,2.5,0.2,3.6,0.8l-1,4.6c-1.1-0.4-1.9-0.6-3.2-0.6
		c-2.9,0-6.5,2.2-8.8,8.2v22.6h-5.2V16.4z"/>
	<path class="st0" d="M291.1,33.8c0-11.3,7.4-18.3,15.3-18.3c8.6,0,13.6,6.2,13.6,16.2c0,1.2-0.1,2.3-0.3,3.1h-23.5
		c0.3,7.7,4.9,12.8,11.8,12.8c3.4,0,6.2-1.1,8.7-2.8l1.9,3.5c-3,1.9-6.5,3.5-11.3,3.5C298.4,51.9,291.1,45.2,291.1,33.8z
		 M315.4,31.1c0-7.4-3.3-11.4-8.9-11.4c-5.1,0-9.6,4.2-10.3,11.4H315.4z"/>
</g>
</svg>
